<svg xmlns="http://www.w3.org/2000/svg" viewBox="0 0 880 420" width="100%" height="auto" style="background:#0b0f19; border-radius: 8px; font-family: -apple-system, BlinkMacSystemFont, 'Segoe UI', Roboto, Helvetica, Arial, sans-serif;">
  <rect width="880" height="420" fill="#0b0f19" rx="8"/>
  
  <!-- Title & Subtitle -->
  <text x="440.0" y="26" font-size="14" font-weight="bold" fill="#f8fafc" text-anchor="middle">COROLT SPACE AGENCY  |  FLIGHT TELEMETRY: MISSION CSA-10</text>
  <text x="440.0" y="42" font-size="11" fill="#64748b" text-anchor="middle">Corolt-IIIb (Upgraded 800 EC Upper Stage) (Corolt-III Family) • 🟢 Total Mission Accomplished | 100% Solid-Ground Mountain Recovery (1,584m ASL) | Apogee 162.65 km</text>

  <!-- Grid & Ticks -->
  <line x1="80" y1="50.0" x2="800" y2="50.0" stroke="#1e293b" stroke-dasharray="3,3" stroke-width="1"/>
    <text x="70" y="54.0" font-size="11" fill="#38bdf8" text-anchor="end" font-family="monospace">180 km</text>
    <text x="810" y="54.0" font-size="11" fill="#f43f5e" text-anchor="start" font-family="monospace">1600 m/s</text>
    <line x1="80" y1="112.0" x2="800" y2="112.0" stroke="#1e293b" stroke-dasharray="3,3" stroke-width="1"/>
    <text x="70" y="116.0" font-size="11" fill="#38bdf8" text-anchor="end" font-family="monospace">144 km</text>
    <text x="810" y="116.0" font-size="11" fill="#f43f5e" text-anchor="start" font-family="monospace">1280 m/s</text>
    <line x1="80" y1="174.0" x2="800" y2="174.0" stroke="#1e293b" stroke-dasharray="3,3" stroke-width="1"/>
    <text x="70" y="178.0" font-size="11" fill="#38bdf8" text-anchor="end" font-family="monospace">108 km</text>
    <text x="810" y="178.0" font-size="11" fill="#f43f5e" text-anchor="start" font-family="monospace">960 m/s</text>
    <line x1="80" y1="236.0" x2="800" y2="236.0" stroke="#1e293b" stroke-dasharray="3,3" stroke-width="1"/>
    <text x="70" y="240.0" font-size="11" fill="#38bdf8" text-anchor="end" font-family="monospace">72 km</text>
    <text x="810" y="240.0" font-size="11" fill="#f43f5e" text-anchor="start" font-family="monospace">640 m/s</text>
    <line x1="80" y1="298.0" x2="800" y2="298.0" stroke="#1e293b" stroke-dasharray="3,3" stroke-width="1"/>
    <text x="70" y="302.0" font-size="11" fill="#38bdf8" text-anchor="end" font-family="monospace">36 km</text>
    <text x="810" y="302.0" font-size="11" fill="#f43f5e" text-anchor="start" font-family="monospace">320 m/s</text>
    <line x1="80" y1="360.0" x2="800" y2="360.0" stroke="#1e293b" stroke-dasharray="3,3" stroke-width="1"/>
    <text x="70" y="364.0" font-size="11" fill="#38bdf8" text-anchor="end" font-family="monospace">0 km</text>
    <text x="810" y="364.0" font-size="11" fill="#f43f5e" text-anchor="start" font-family="monospace">0 m/s</text>
    <line x1="80.0" y1="50" x2="80.0" y2="360" stroke="#1e293b" stroke-dasharray="3,3" stroke-width="1"/>
    <text x="80.0" y="380" font-size="11" fill="#94a3b8" text-anchor="middle" font-family="monospace">T+0s</text>
    <line x1="200.0" y1="50" x2="200.0" y2="360" stroke="#1e293b" stroke-dasharray="3,3" stroke-width="1"/>
    <text x="200.0" y="380" font-size="11" fill="#94a3b8" text-anchor="middle" font-family="monospace">T+227s</text>
    <line x1="320.0" y1="50" x2="320.0" y2="360" stroke="#1e293b" stroke-dasharray="3,3" stroke-width="1"/>
    <text x="320.0" y="380" font-size="11" fill="#94a3b8" text-anchor="middle" font-family="monospace">T+454s</text>
    <line x1="440.0" y1="50" x2="440.0" y2="360" stroke="#1e293b" stroke-dasharray="3,3" stroke-width="1"/>
    <text x="440.0" y="380" font-size="11" fill="#94a3b8" text-anchor="middle" font-family="monospace">T+681s</text>
    <line x1="560.0" y1="50" x2="560.0" y2="360" stroke="#1e293b" stroke-dasharray="3,3" stroke-width="1"/>
    <text x="560.0" y="380" font-size="11" fill="#94a3b8" text-anchor="middle" font-family="monospace">T+907s</text>
    <line x1="680.0" y1="50" x2="680.0" y2="360" stroke="#1e293b" stroke-dasharray="3,3" stroke-width="1"/>
    <text x="680.0" y="380" font-size="11" fill="#94a3b8" text-anchor="middle" font-family="monospace">T+1134s</text>
    <line x1="800.0" y1="50" x2="800.0" y2="360" stroke="#1e293b" stroke-dasharray="3,3" stroke-width="1"/>
    <text x="800.0" y="380" font-size="11" fill="#94a3b8" text-anchor="middle" font-family="monospace">T+1361s</text>
  
  <!-- Space boundary 70km -->
  <line x1="80" y1="239.4" x2="800" y2="239.4" stroke="#a855f7" stroke-dasharray="6,4" stroke-width="1.5"/>
  <text x="790" y="233.4" font-size="11" fill="#a855f7" font-weight="bold" text-anchor="end">Space Boundary (Kármán 70 km)</text>

  <!-- Axes Frame -->
  <line x1="80" y1="50" x2="80" y2="360" stroke="#475569" stroke-width="1.5"/>
  <line x1="800" y1="50" x2="800" y2="360" stroke="#475569" stroke-width="1.5"/>
  <line x1="80" y1="360" x2="800" y2="360" stroke="#475569" stroke-width="1.5"/>

  <!-- Telemetry Curves -->
  <polyline fill="none" stroke="#f43f5e" stroke-width="2" stroke-linecap="round" points="80.0,360.0 81.9,360.0 83.7,360.0 85.6,360.0 87.4,360.0 89.3,360.0 91.2,360.0 93.0,360.0 94.9,360.0 96.7,360.0 98.6,360.0 100.4,360.0 102.3,360.0 104.2,360.0 106.0,360.0 107.9,360.0 109.7,360.0 111.6,360.0 113.4,360.0 115.3,360.0 117.2,360.0 119.0,360.0 120.9,360.0 122.7,360.0 124.6,360.0 126.4,360.0 128.3,360.0 130.2,360.0 132.0,360.0 133.9,360.0 135.8,360.0 137.6,360.0 139.5,360.0 141.4,360.0 143.2,360.0 145.1,360.0 146.9,360.0 148.8,360.0 150.7,360.0 152.5,360.0 154.4,360.0 156.2,360.0 158.1,360.0 160.0,360.0 161.8,360.0 163.7,360.0 165.6,360.0 167.4,360.0 169.3,360.0 171.1,360.0 173.0,360.0 174.8,360.0 176.7,360.0 178.6,360.0 180.4,360.0 182.4,360.0 184.2,360.0 186.1,360.0 187.9,360.0 189.8,360.0 191.6,360.0 193.5,360.0 195.4,360.0 197.2,360.0 199.1,360.0 201.0,360.0 202.8,360.0 204.7,360.0 206.5,360.0 208.4,360.0 210.2,360.0 212.1,360.0 214.0,360.0 215.8,360.0 217.7,360.0 219.5,360.0 221.4,360.0 223.2,360.0 225.1,360.0 227.0,360.0 228.8,360.0 230.7,360.0 232.5,360.0 234.4,360.0 236.3,360.0 238.1,360.0 240.0,360.0 241.9,360.0 243.7,360.0 245.6,360.0 247.4,360.0 249.3,360.0 251.1,360.0 253.0,360.0 254.9,360.0 256.7,360.0 258.6,360.0 260.4,360.0 262.3,360.0 264.1,360.0 266.0,360.0 267.8,360.0 269.7,360.0 271.6,360.0 273.4,360.0 275.3,360.0 277.1,360.0 279.0,360.0 280.8,360.0 282.7,360.0 284.5,360.0 286.4,360.0 288.3,360.0 290.1,360.0 292.0,360.0 293.9,360.0 295.7,360.0 297.6,360.0 299.4,360.0 301.3,360.0 303.1,360.0 305.0,360.0 306.9,360.0 308.7,360.0 310.6,360.0 312.4,360.0 314.3,360.0 316.1,360.0 318.0,360.0 319.8,360.0 321.7,360.0 323.6,360.0 325.4,360.0 327.3,360.0 329.1,360.0 331.0,360.0 332.8,360.0 334.7,355.1 336.6,349.5 338.4,343.5 340.3,337.4 342.1,330.9 344.0,324.2 345.8,316.9 347.7,309.6 349.6,301.7 351.5,295.0 353.3,289.3 355.2,282.9 357.1,274.6 358.9,272.3 360.8,260.8 362.6,258.7 364.5,257.4 366.4,254.3 368.2,248.6 370.1,240.9 371.9,231.6 373.8,220.9 375.7,208.7 377.6,195.0 379.4,179.9 381.3,163.3 383.1,145.0 385.0,125.7 386.8,103.8 388.7,97.6 390.6,102.7 392.4,107.6 394.3,112.4 396.2,117.1 398.0,121.8 399.9,126.4 401.7,130.9 403.6,135.2 405.5,139.6 407.3,143.9 409.2,148.2 411.0,152.3 412.9,156.4 414.8,160.4 416.6,164.4 418.5,168.3 420.3,172.2 422.2,176.0 424.0,179.6 425.9,183.3 427.8,186.9 429.6,190.5 431.5,194.0 433.3,197.4 435.2,200.7 437.1,204.0 438.9,207.2 440.8,210.3 442.7,213.4 444.5,216.4 446.4,219.2 448.3,222.0 450.1,224.7 452.0,227.4 453.9,230.0 455.7,232.5 457.6,235.0 459.5,237.2 461.3,239.5 463.2,241.6 465.1,243.6 466.9,245.5 468.8,247.2 470.6,248.8 472.5,250.3 474.3,251.7 476.2,252.9 478.1,254.0 479.9,255.0 481.8,255.4 483.6,255.4 485.5,255.5 487.4,255.5 489.2,255.5 491.1,255.6 492.9,256.1 494.9,256.7 496.7,257.2 498.6,257.5 500.4,257.7 502.3,257.7 504.1,257.5 506.0,257.2 507.9,256.8 509.7,256.2 511.6,255.5 513.4,254.5 515.3,253.5 517.1,252.3 519.1,251.0 520.9,249.5 522.8,248.4 524.6,247.2 526.5,246.2 528.4,246.1 530.2,246.0 532.1,244.9 533.9,243.0 535.8,242.1 537.6,240.0 539.5,237.9 541.4,235.6 543.3,233.2 545.1,230.8 547.0,228.3 548.8,225.6 550.7,222.9 552.6,220.1 554.4,217.1 556.3,214.2 558.1,212.5 560.0,212.3 561.8,212.2 563.7,212.1 565.6,212.0 567.4,211.9 569.3,211.8 571.1,211.6 573.0,211.5 574.8,209.8 576.7,206.8 578.6,206.3 580.4,206.1 582.3,206.0 584.1,205.9 586.0,205.7 587.8,205.6 589.7,205.5 591.5,205.3 593.4,205.2 595.3,205.1 597.1,205.0 599.0,204.8 600.9,204.7 602.7,204.6 604.6,204.5 606.4,201.7 608.3,198.4 610.2,195.0 612.0,191.5 613.9,188.0 615.7,187.0 617.6,186.9 619.4,186.7 621.3,186.6 623.1,186.5 625.0,186.3 626.9,186.2 628.7,186.1 630.6,185.9 632.4,185.8 634.3,185.6 636.1,185.5 638.0,184.2 639.9,180.5 641.7,177.0 643.6,173.2 645.4,169.3 647.3,165.4 649.1,165.2 651.0,165.0 652.9,164.9 654.8,162.2 656.6,161.4 658.5,161.2 660.3,157.8 662.2,153.8 664.0,149.5 666.0,145.3 667.9,141.1 669.7,136.7 671.6,132.3 673.4,127.8 675.3,123.2 677.1,118.5 679.0,113.9 680.9,109.3 682.7,104.4 684.6,99.5 686.4,94.7 688.3,91.8 690.2,91.6 692.0,88.5 693.9,84.0 695.7,80.3 697.6,78.8 699.4,79.4 701.4,88.1 703.2,112.2 705.1,156.2 706.9,205.1 708.8,246.4 710.6,278.8 712.5,305.2 714.4,319.2 716.3,340.9 718.2,345.8 720.0,346.9 721.9,347.4 723.7,347.5 725.6,347.9 727.4,348.0 729.3,348.2 731.2,348.3 733.0,348.4 734.9,348.6 736.7,348.8 738.6,349.1 740.5,349.1 742.3,349.2 744.2,349.5 746.1,351.5 748.0,358.3 749.8,358.5 751.7,358.5 753.5,358.4 755.4,358.4 757.2,358.5 759.1,358.5 761.0,358.5 762.8,358.5 764.7,358.4 766.5,358.5 768.4,358.5 770.3,358.5 772.1,358.5 774.0,358.4 775.8,358.5 777.7,358.4 779.5,358.4 781.4,358.4 783.3,358.4 785.1,358.4 787.0,358.5 788.8,358.5 790.7,358.5 792.5,358.5 794.4,358.4 796.3,358.5 798.1,358.5 800.0,359.7"/>
  <polyline fill="none" stroke="#38bdf8" stroke-width="2.5" stroke-linecap="round" points="80.0,359.9 81.9,359.9 83.7,359.9 85.6,359.9 87.4,359.9 89.3,359.9 91.2,359.9 93.0,359.9 94.9,359.9 96.7,359.9 98.6,359.9 100.4,359.9 102.3,359.9 104.2,359.9 106.0,359.9 107.9,359.9 109.7,359.9 111.6,359.9 113.4,359.9 115.3,359.9 117.2,359.9 119.0,359.9 120.9,359.9 122.7,359.9 124.6,359.9 126.4,359.9 128.3,359.9 130.2,359.9 132.0,359.9 133.9,359.9 135.8,359.9 137.6,359.9 139.5,359.9 141.4,359.9 143.2,359.9 145.1,359.9 146.9,359.9 148.8,359.9 150.7,359.9 152.5,359.9 154.4,359.9 156.2,359.9 158.1,359.9 160.0,359.9 161.8,359.9 163.7,359.9 165.6,359.9 167.4,359.9 169.3,359.9 171.1,359.9 173.0,359.9 174.8,359.9 176.7,359.9 178.6,359.9 180.4,359.9 182.4,359.9 184.2,359.9 186.1,359.9 187.9,359.9 189.8,359.9 191.6,359.9 193.5,359.9 195.4,359.9 197.2,359.9 199.1,359.9 201.0,359.9 202.8,359.9 204.7,359.9 206.5,359.9 208.4,359.9 210.2,359.9 212.1,359.9 214.0,359.9 215.8,359.9 217.7,359.9 219.5,359.9 221.4,359.9 223.2,359.9 225.1,359.9 227.0,359.9 228.8,359.9 230.7,359.9 232.5,359.9 234.4,359.9 236.3,359.9 238.1,359.9 240.0,359.9 241.9,359.9 243.7,359.9 245.6,359.9 247.4,359.9 249.3,359.9 251.1,359.9 253.0,359.9 254.9,359.9 256.7,359.9 258.6,359.9 260.4,359.9 262.3,359.9 264.1,359.9 266.0,359.9 267.8,359.9 269.7,359.9 271.6,359.9 273.4,359.9 275.3,359.9 277.1,359.9 279.0,359.9 280.8,359.9 282.7,359.9 284.5,359.9 286.4,359.9 288.3,359.9 290.1,359.9 292.0,359.9 293.9,359.9 295.7,359.9 297.6,359.9 299.4,359.9 301.3,359.9 303.1,359.9 305.0,359.9 306.9,359.9 308.7,359.9 310.6,359.9 312.4,359.9 314.3,359.9 316.1,359.9 318.0,359.9 319.8,359.9 321.7,359.9 323.6,359.9 325.4,359.9 327.3,359.9 329.1,359.9 331.0,359.9 332.8,359.9 334.7,359.8 336.6,359.6 338.4,359.1 340.3,358.5 342.1,357.7 344.0,356.8 345.8,355.5 347.7,354.1 349.6,352.4 351.5,350.5 353.3,348.4 355.2,346.1 357.1,343.6 358.9,342.9 360.8,340.0 362.6,336.8 364.5,333.6 366.4,330.5 368.2,327.1 370.1,323.6 371.9,319.8 373.8,315.8 375.7,311.4 377.6,306.6 379.4,301.5 381.3,296.0 383.1,290.0 385.0,283.8 386.8,276.9 388.7,269.7 390.6,262.4 392.4,255.4 394.3,248.6 396.2,241.9 398.0,235.3 399.9,228.8 401.7,222.6 403.6,216.6 405.5,210.6 407.3,204.7 409.2,199.1 411.0,193.5 412.9,188.1 414.8,183.0 416.6,177.9 418.5,172.9 420.3,168.1 422.2,163.3 424.0,158.9 425.9,154.4 427.8,150.2 429.6,146.0 431.5,141.9 433.3,138.0 435.2,134.4 437.1,130.7 438.9,127.2 440.8,123.8 442.7,120.5 444.5,117.4 446.4,114.5 448.3,111.8 450.1,109.0 452.0,106.4 453.9,103.9 455.7,101.5 457.6,99.2 459.5,97.1 461.3,95.1 463.2,93.3 465.1,91.5 466.9,89.9 468.8,88.4 470.6,87.1 472.5,85.8 474.3,84.7 476.2,83.6 478.1,82.7 479.9,82.0 481.8,81.7 483.6,81.6 485.5,81.6 487.4,81.6 489.2,81.6 491.1,81.5 492.9,81.1 494.9,80.6 496.7,80.3 498.6,80.0 500.4,79.9 502.3,79.9 504.1,80.0 506.0,80.2 507.9,80.6 509.7,81.1 511.6,81.7 513.4,82.4 515.3,83.3 517.1,84.2 519.1,85.3 520.9,86.5 522.8,87.5 524.6,88.5 526.5,89.4 528.4,89.5 530.2,89.5 532.1,90.5 533.9,92.2 535.8,92.9 537.6,94.8 539.5,96.7 541.4,98.8 543.3,101.0 545.1,103.4 547.0,105.7 548.8,108.3 550.7,111.1 552.6,113.9 554.4,116.9 556.3,120.0 558.1,121.8 560.0,121.9 561.8,122.0 563.7,122.2 565.6,122.3 567.4,122.4 569.3,122.5 571.1,122.6 573.0,122.8 574.8,124.6 576.7,127.9 578.6,128.4 580.4,128.6 582.3,128.7 584.1,128.9 586.0,129.0 587.8,129.2 589.7,129.3 591.5,129.4 593.4,129.6 595.3,129.7 597.1,129.8 599.0,130.0 600.9,130.1 602.7,130.3 604.6,130.4 606.4,133.4 608.3,137.2 610.2,141.0 612.0,145.1 613.9,149.2 615.7,150.3 617.6,150.5 619.4,150.6 621.3,150.8 623.1,151.0 625.0,151.1 626.9,151.3 628.7,151.5 630.6,151.7 632.4,151.8 634.3,152.0 636.1,152.1 638.0,153.6 639.9,158.1 641.7,162.4 643.6,167.1 645.4,171.9 647.3,176.9 649.1,177.2 651.0,177.3 652.9,177.6 654.8,181.0 656.6,182.0 658.5,182.2 660.3,186.7 662.2,192.0 664.0,197.5 666.0,203.2 667.9,208.8 669.7,214.8 671.6,220.9 673.4,227.2 675.3,233.6 677.1,240.2 679.0,246.9 680.9,253.5 682.7,260.5 684.6,267.7 686.4,275.1 688.3,279.6 690.2,279.9 692.0,284.9 693.9,292.6 695.7,300.4 697.6,305.3 699.4,312.9 701.4,320.8 703.2,328.2 705.1,334.7 706.9,339.8 708.8,343.6 710.6,346.1 712.5,348.0 714.4,349.4 716.3,350.2 718.2,350.7 720.0,351.2 721.9,351.6 723.7,351.9 725.6,352.3 727.4,352.7 729.3,353.1 731.2,353.4 733.0,353.8 734.9,354.1 736.7,354.5 738.6,354.8 740.5,355.1 742.3,355.5 744.2,355.8 746.1,356.1 748.0,356.2 749.8,356.3 751.7,356.3 753.5,356.4 755.4,356.4 757.2,356.5 759.1,356.5 761.0,356.6 762.8,356.6 764.7,356.6 766.5,356.6 768.4,356.6 770.3,356.6 772.1,356.6 774.0,356.7 775.8,356.7 777.7,356.7 779.5,356.8 781.4,356.8 783.3,356.8 785.1,356.9 787.0,356.9 788.8,357.0 790.7,357.0 792.5,357.1 794.4,357.1 796.3,357.2 798.1,357.2 800.0,357.3"/>

  <!-- Annotated Event Markers -->
  <circle cx="501.2" cy="79.9" r="4.5" fill="#38bdf8" stroke="#ffffff" stroke-width="1.5"/>
  <text x="501.2" y="67.9" font-size="11" font-weight="bold" fill="#38bdf8" text-anchor="middle">Apogee: 162.6 km (T+796s)</text>
  <circle cx="800.0" cy="357.3" r="4.5" fill="#22c55e" stroke="#ffffff" stroke-width="1.5"/>
  <text x="790.0" y="342.3" font-size="11" font-weight="bold" fill="#22c55e" text-anchor="end">Mountain Touchdown (1,584m ASL)</text>

  <!-- Axis Titles & Legends -->
  <text x="440.0" y="405" font-size="12" fill="#94a3b8" text-anchor="middle">Mission Elapsed Time (MET) in seconds</text>
  <text transform="rotate(-90)" x="-205.0" y="24" font-size="11" fill="#38bdf8" text-anchor="middle">Altitude</text>
  <text transform="rotate(90)" x="205.0" y="-856" font-size="11" fill="#f43f5e" text-anchor="middle">Velocity (m/s)</text>

  <!-- Legend Box -->
  <g transform="translate(80, 400)">
    <line x1="0" y1="0" x2="20" y2="0" stroke="#38bdf8" stroke-width="2.5"/>
    <text x="25" y="4" font-size="11" fill="#94a3b8">Altitude</text>

    <line x1="100" y1="0" x2="120" y2="0" stroke="#f43f5e" stroke-width="2"/>
    <text x="125" y="4" font-size="11" fill="#94a3b8">Surface Velocity (m/s)</text>
  </g>
</svg>