<svg xmlns="http://www.w3.org/2000/svg" viewBox="0 0 1200 800" width="100%" height="auto" style="background:#070b13; font-family: -apple-system, BlinkMacSystemFont, 'Segoe UI', Roboto, sans-serif;">
  <rect width="1200" height="800" fill="#070b13"/>
  <text x="600.0" y="24" font-size="15" font-weight="bold" fill="#f8fafc" text-anchor="middle">COROLT SPACE AGENCY  |  FLIGHT OPERATIONS DECK: MISSION CSA-09</text>
  <text x="600.0" y="38" font-size="10.5" fill="#64748b" text-anchor="middle">Comprehensive 6-Panel Engineering Telemetry Suite • Sounding Rocket Deep Space Flight</text>
  
        <!-- Panel: 🌌 ALTITUDE &amp; SPACE REGIMES -->
        <rect x="20" y="40" width="565" height="230" rx="6" fill="#0d1527" stroke="#1e293b" stroke-width="1"/>
        <text x="60" y="55" font-size="11" font-weight="bold" fill="#f8fafc">🌌 ALTITUDE &amp; SPACE REGIMES</text>
        <line x1="60" y1="65.0" x2="540" y2="65.0" stroke="#1e293b" stroke-dasharray="2,2" stroke-width="0.8"/> <text x="54" y="68.0" font-size="9" fill="#38bdf8" text-anchor="end" font-family="monospace">180</text> <line x1="60" y1="110.0" x2="540" y2="110.0" stroke="#1e293b" stroke-dasharray="2,2" stroke-width="0.8"/> <text x="54" y="113.0" font-size="9" fill="#38bdf8" text-anchor="end" font-family="monospace">135</text> <line x1="60" y1="155.0" x2="540" y2="155.0" stroke="#1e293b" stroke-dasharray="2,2" stroke-width="0.8"/> <text x="54" y="158.0" font-size="9" fill="#38bdf8" text-anchor="end" font-family="monospace">90</text> <line x1="60" y1="200.0" x2="540" y2="200.0" stroke="#1e293b" stroke-dasharray="2,2" stroke-width="0.8"/> <text x="54" y="203.0" font-size="9" fill="#38bdf8" text-anchor="end" font-family="monospace">45</text> <line x1="60" y1="245.0" x2="540" y2="245.0" stroke="#1e293b" stroke-dasharray="2,2" stroke-width="0.8"/> <text x="54" y="248.0" font-size="9" fill="#38bdf8" text-anchor="end" font-family="monospace">0</text>
        <line x1="60" y1="175.0" x2="540" y2="175.0" stroke="#c084fc" stroke-dasharray="4,3" stroke-width="1.2"/><text x="535" y="171.0" font-size="8.5" fill="#c084fc" font-weight="bold" text-anchor="end">Kármán Line (70 km)</text>
        <line x1="60" y1="65" x2="60" y2="245" stroke="#475569" stroke-width="1"/>
        <line x1="540" y1="65" x2="540" y2="245" stroke="#475569" stroke-width="1"/>
        <line x1="60" y1="245" x2="540" y2="245" stroke="#475569" stroke-width="1"/>
        
        <polyline fill="none" stroke="#38bdf8" stroke-width="2.2" stroke-linecap="round" points="60.0,244.9 61.9,244.9 63.8,244.7 65.6,244.3 67.5,243.9 69.3,243.2 71.2,242.5 73.1,241.5 74.9,240.4 76.8,239.1 78.6,237.7 80.5,236.0 82.4,234.3 84.2,232.1 86.1,229.9 88.0,227.6 89.9,225.3 91.7,224.0 93.6,221.4 95.4,218.6 97.3,215.6 99.1,212.4 101.0,209.0 102.9,205.2 104.7,201.0 106.6,196.7 108.4,191.9 110.3,187.1 112.2,182.5 114.1,177.9 115.9,173.6 117.8,169.3 119.6,165.1 121.5,161.0 123.4,157.0 125.3,153.1 127.1,149.4 129.0,145.8 130.9,142.2 132.7,138.8 134.6,135.5 136.5,132.3 138.4,129.2 140.3,126.2 142.1,123.4 144.0,120.6 145.9,117.9 147.7,117.2 149.6,117.1 151.4,117.0 153.3,116.9 155.1,116.8 157.0,116.7 158.9,116.6 160.7,116.5 162.6,116.4 164.5,114.6 166.3,112.2 168.2,109.9 170.1,107.6 171.9,105.5 173.8,103.6 175.6,101.6 177.5,99.8 179.3,98.0 181.2,96.4 183.1,94.8 184.9,93.3 186.9,91.9 188.7,90.6 190.6,89.4 192.5,88.4 194.3,87.4 196.2,86.5 198.0,85.7 199.9,84.9 201.8,84.3 203.6,83.8 205.5,83.3 207.3,83.0 209.2,82.7 211.1,82.5 213.0,82.4 214.8,82.5 216.7,82.6 218.5,82.8 220.4,83.1 222.3,83.2 224.1,83.2 226.0,83.2 227.9,83.2 229.7,83.3 231.6,83.3 233.4,83.3 235.3,83.5 237.2,84.0 239.0,84.6 240.9,85.3 242.8,86.0 244.6,86.9 246.5,87.8 248.3,88.9 250.2,90.0 252.1,91.3 253.9,92.6 255.8,94.1 257.6,95.6 259.5,97.1 261.4,98.9 263.3,100.7 265.1,102.6 267.0,104.6 268.8,106.1 270.7,106.2 272.6,106.2 274.4,106.3 276.3,106.4 278.1,106.5 280.0,108.2 281.9,109.3 283.7,109.4 285.6,109.5 287.5,109.6 289.4,109.7 291.2,110.4 293.1,112.8 294.9,113.5 296.8,114.1 298.6,116.6 300.5,119.3 302.4,122.0 304.2,123.6 306.1,125.4 308.0,128.3 309.8,131.3 311.7,134.5 313.6,136.2 315.4,137.5 317.3,140.8 319.1,144.3 321.1,147.9 322.9,151.6 324.8,155.4 326.6,159.3 328.5,163.3 330.4,167.5 332.2,171.8 334.1,176.2 336.0,180.5 337.9,185.1 339.7,189.8 341.6,194.7 343.4,199.6 345.3,204.7 347.2,209.5 349.0,214.8 350.9,220.1 352.7,225.4 354.6,230.2 356.5,234.2 358.3,237.3 360.2,239.4 362.1,240.9 364.0,242.0 365.8,242.9 367.7,243.5 369.5,243.8 371.4,244.1 373.3,244.3 375.1,244.4 377.0,244.5 378.8,244.5 380.7,244.5 382.5,244.6 384.5,244.6 386.3,244.6 388.2,244.7 390.0,244.7 391.9,244.8 393.8,244.8 395.6,244.8 397.5,244.9 399.3,244.9 401.2,244.9 403.0,244.9 404.9,244.9 406.8,244.9 408.7,244.9 410.5,244.9 412.4,245.0 414.2,245.0 416.1,245.0 418.0,245.0 419.8,245.0 421.7,245.0 423.5,245.0 425.4,245.0 427.2,245.0 429.1,245.0 431.0,245.0 432.9,245.0 434.7,245.0 436.6,245.0 438.5,245.0 440.3,245.0 442.2,245.0 444.1,245.0 445.9,245.0 447.8,245.0 449.6,245.0 451.5,245.0 453.3,245.0 455.2,245.0 457.1,245.0 459.0,245.0 460.8,245.0 462.7,245.0 464.6,245.0 466.4,245.0 468.3,245.0 470.1,245.0 472.0,245.0 473.8,245.0 475.7,245.0 477.6,245.0 479.4,245.0 481.3,245.0 483.2,245.0 485.0,245.0 486.9,245.0 488.8,245.0 490.6,245.0 492.5,245.0 494.3,245.0 496.2,245.0 498.0,245.0 499.9,245.0 501.8,245.0 503.7,245.0 505.5,245.0 507.4,245.0 509.2,245.0 511.1,245.0 512.9,245.0 514.8,245.0 516.7,245.0 518.5,245.0 520.4,245.0 522.2,245.0 524.1,245.0 526.0,245.0 527.9,245.0 529.7,245.0 531.6,245.0 533.4,245.0 535.3,245.0 537.2,245.0 540.0,245.0"/>
        <text x="300.0" y="261" font-size="9.5" fill="#64748b" text-anchor="middle">MET (s)</text>
        
  
        <!-- Panel: ⚡ SURFACE &amp; ORBITAL VELOCITY -->
        <rect x="620" y="40" width="565" height="230" rx="6" fill="#0d1527" stroke="#1e293b" stroke-width="1"/>
        <text x="660" y="55" font-size="11" font-weight="bold" fill="#f8fafc">⚡ SURFACE &amp; ORBITAL VELOCITY</text>
        <line x1="660" y1="65.0" x2="1140" y2="65.0" stroke="#1e293b" stroke-dasharray="2,2" stroke-width="0.8"/> <text x="654" y="68.0" font-size="9" fill="#f43f5e" text-anchor="end" font-family="monospace">1600</text> <text x="1146" y="68.0" font-size="9" fill="#fbbf24" text-anchor="start" font-family="monospace">1600</text> <line x1="660" y1="110.0" x2="1140" y2="110.0" stroke="#1e293b" stroke-dasharray="2,2" stroke-width="0.8"/> <text x="654" y="113.0" font-size="9" fill="#f43f5e" text-anchor="end" font-family="monospace">1200</text> <text x="1146" y="113.0" font-size="9" fill="#fbbf24" text-anchor="start" font-family="monospace">1200</text> <line x1="660" y1="155.0" x2="1140" y2="155.0" stroke="#1e293b" stroke-dasharray="2,2" stroke-width="0.8"/> <text x="654" y="158.0" font-size="9" fill="#f43f5e" text-anchor="end" font-family="monospace">800</text> <text x="1146" y="158.0" font-size="9" fill="#fbbf24" text-anchor="start" font-family="monospace">800</text> <line x1="660" y1="200.0" x2="1140" y2="200.0" stroke="#1e293b" stroke-dasharray="2,2" stroke-width="0.8"/> <text x="654" y="203.0" font-size="9" fill="#f43f5e" text-anchor="end" font-family="monospace">400</text> <text x="1146" y="203.0" font-size="9" fill="#fbbf24" text-anchor="start" font-family="monospace">400</text> <line x1="660" y1="245.0" x2="1140" y2="245.0" stroke="#1e293b" stroke-dasharray="2,2" stroke-width="0.8"/> <text x="654" y="248.0" font-size="9" fill="#f43f5e" text-anchor="end" font-family="monospace">0</text> <text x="1146" y="248.0" font-size="9" fill="#fbbf24" text-anchor="start" font-family="monospace">0</text>
        
        <line x1="660" y1="65" x2="660" y2="245" stroke="#475569" stroke-width="1"/>
        <line x1="1140" y1="65" x2="1140" y2="245" stroke="#475569" stroke-width="1"/>
        <line x1="660" y1="245" x2="1140" y2="245" stroke="#475569" stroke-width="1"/>
        <polyline fill="none" stroke="#fbbf24" stroke-width="1.8" stroke-linecap="round" points="660.0,225.3 661.9,225.0 663.8,224.0 665.6,222.2 667.5,219.9 669.3,216.9 671.2,213.3 673.1,209.9 674.9,205.7 676.8,201.9 678.6,198.1 680.5,193.1 682.4,186.7 684.2,177.9 686.1,180.0 688.0,179.1 689.9,176.6 691.7,174.5 693.6,169.6 695.4,163.4 697.3,156.1 699.1,148.0 701.0,139.0 702.9,128.4 704.7,116.6 706.6,103.9 708.4,94.5 710.3,97.9 712.2,101.2 714.1,104.5 715.9,107.6 717.8,110.7 719.6,113.8 721.5,116.9 723.4,119.8 725.3,122.8 727.1,125.6 729.0,128.4 730.9,131.2 732.7,134.0 734.6,136.7 736.5,139.3 738.4,141.9 740.3,144.4 742.1,147.0 744.0,149.4 745.9,151.8 747.7,152.4 749.6,152.5 751.4,152.6 753.3,152.7 755.1,152.8 757.0,152.9 758.9,153.0 760.7,153.1 762.6,153.2 764.5,154.8 766.3,157.1 768.2,159.3 770.1,161.5 771.9,163.7 773.8,165.6 775.6,167.6 777.5,169.5 779.3,171.4 781.2,173.3 783.1,175.0 784.9,176.7 786.9,178.3 788.7,179.9 790.6,181.3 792.5,182.7 794.3,183.9 796.2,185.1 798.0,186.1 799.9,187.1 801.8,188.0 803.6,188.7 805.5,189.3 807.3,189.8 809.2,190.2 811.1,190.4 813.0,190.5 814.8,190.5 816.7,190.4 818.5,190.1 820.4,189.7 822.3,189.5 824.1,189.5 826.0,189.4 827.9,189.4 829.7,189.4 831.6,189.4 833.4,189.4 835.3,189.0 837.2,188.4 839.0,187.6 840.9,186.7 842.8,185.6 844.6,184.5 846.5,183.3 848.3,182.0 850.2,180.6 852.1,179.1 853.9,177.5 855.8,175.9 857.6,174.2 859.5,172.4 861.4,170.5 863.3,168.6 865.1,166.6 867.0,164.5 868.8,163.1 870.7,163.0 872.6,162.9 874.4,162.8 876.3,162.7 878.1,162.6 880.0,160.9 881.9,159.8 883.7,159.7 885.6,159.7 887.5,159.6 889.4,159.5 891.2,158.8 893.1,156.5 894.9,155.9 896.8,155.3 898.6,153.0 900.5,150.6 902.4,148.1 904.2,146.8 906.1,145.2 908.0,142.7 909.8,140.1 911.7,137.5 913.6,136.1 915.4,135.1 917.3,132.4 919.1,129.6 921.1,126.8 922.9,123.9 924.8,121.0 926.6,118.1 928.5,115.1 930.4,112.0 932.2,108.9 934.1,105.7 936.0,102.7 937.9,99.4 939.7,96.3 941.6,93.3 943.4,90.5 945.3,88.1 947.2,85.4 949.0,83.3 950.9,83.9 952.7,91.2 954.6,111.2 956.5,138.9 958.3,170.0 960.2,193.3 962.1,211.0 964.0,214.4 965.8,217.4 967.7,225.4 969.5,225.7 971.4,225.7 973.3,225.8 975.1,225.3 977.0,225.3 978.8,225.3 980.7,225.3 982.5,225.3 984.5,225.3 986.3,225.3 988.2,225.3 990.0,225.3 991.9,225.3 993.8,225.3 995.6,225.3 997.5,225.3 999.3,225.3 1001.2,225.3 1003.0,225.3 1004.9,225.3 1006.8,225.3 1008.7,225.3 1010.5,225.3 1012.4,225.3 1014.2,225.3 1016.1,225.3 1018.0,225.3 1019.8,225.3 1021.7,225.3 1023.5,225.3 1025.4,225.3 1027.2,225.3 1029.1,225.3 1031.0,225.3 1032.9,225.3 1034.7,225.3 1036.6,225.3 1038.5,225.3 1040.3,225.3 1042.2,225.3 1044.1,225.3 1045.9,225.3 1047.8,225.3 1049.6,225.3 1051.5,225.3 1053.3,225.3 1055.2,225.3 1057.1,225.3 1059.0,225.3 1060.8,225.3 1062.7,225.3 1064.6,225.3 1066.4,225.3 1068.3,225.3 1070.1,225.3 1072.0,225.3 1073.8,225.3 1075.7,225.3 1077.6,225.3 1079.4,225.3 1081.3,225.3 1083.2,225.3 1085.0,225.3 1086.9,225.3 1088.8,225.3 1090.6,225.3 1092.5,225.3 1094.3,225.3 1096.2,225.3 1098.0,225.3 1099.9,225.3 1101.8,225.3 1103.7,225.3 1105.5,225.3 1107.4,225.3 1109.2,225.3 1111.1,225.3 1112.9,225.3 1114.8,225.3 1116.7,225.3 1118.5,225.3 1120.4,225.3 1122.2,225.3 1124.1,225.3 1126.0,225.3 1127.9,225.3 1129.7,225.3 1131.6,225.3 1133.4,225.3 1135.3,225.3 1137.2,225.3 1140.0,245.0"/>
        <polyline fill="none" stroke="#f43f5e" stroke-width="2.2" stroke-linecap="round" points="660.0,244.8 661.9,241.4 663.8,237.6 665.6,233.5 667.5,229.5 669.3,224.9 671.2,220.2 673.1,215.3 674.9,210.1 676.8,205.7 678.6,201.5 680.5,196.0 682.4,189.2 684.2,179.9 686.1,181.8 688.0,179.5 689.9,175.7 691.7,172.9 693.6,166.9 695.4,159.7 697.3,151.4 699.1,142.3 701.0,132.3 702.9,120.8 704.7,108.0 706.6,94.3 708.4,84.3 710.3,87.5 712.2,90.5 714.1,93.5 715.9,96.4 717.8,99.3 719.6,102.0 721.5,104.8 723.4,107.5 725.3,110.2 727.1,112.7 729.0,115.3 730.9,117.7 732.7,120.1 734.6,122.5 736.5,124.9 738.4,127.1 740.3,129.3 742.1,131.4 744.0,133.5 745.9,135.6 747.7,136.1 749.6,136.2 751.4,136.3 753.3,136.3 755.1,136.4 757.0,136.5 758.9,136.6 760.7,136.7 762.6,136.7 764.5,138.1 766.3,140.0 768.2,141.8 770.1,143.6 771.9,145.3 773.8,146.9 775.6,148.5 777.5,150.0 779.3,151.5 781.2,152.9 783.1,154.3 784.9,155.6 786.9,156.8 788.7,157.9 790.6,159.0 792.5,160.0 794.3,160.9 796.2,161.7 798.0,162.5 799.9,163.1 801.8,163.7 803.6,164.3 805.5,164.7 807.3,165.0 809.2,165.3 811.1,165.4 813.0,165.5 814.8,165.5 816.7,165.4 818.5,165.2 820.4,164.9 822.3,164.8 824.1,164.8 826.0,164.8 827.9,164.8 829.7,164.7 831.6,164.7 833.4,164.7 835.3,164.5 837.2,164.0 839.0,163.5 840.9,162.8 842.8,162.1 844.6,161.3 846.5,160.5 848.3,159.5 850.2,158.5 852.1,157.4 853.9,156.2 855.8,154.9 857.6,153.6 859.5,152.3 861.4,150.8 863.3,149.3 865.1,147.7 867.0,146.1 868.8,144.9 870.7,144.8 872.6,144.7 874.4,144.7 876.3,144.6 878.1,144.5 880.0,143.1 881.9,142.2 883.7,142.2 885.6,142.1 887.5,142.0 889.4,141.9 891.2,141.4 893.1,139.5 894.9,139.0 896.8,138.5 898.6,136.5 900.5,134.5 902.4,132.5 904.2,131.3 906.1,129.9 908.0,127.8 909.8,125.5 911.7,123.2 913.6,122.0 915.4,121.1 917.3,118.7 919.1,116.3 921.1,113.7 922.9,111.2 924.8,108.6 926.6,105.9 928.5,103.2 930.4,100.4 932.2,97.6 934.1,94.7 936.0,91.8 937.9,88.9 939.7,86.0 941.6,83.2 943.4,80.7 945.3,78.5 947.2,76.0 949.0,74.3 950.9,75.1 952.7,82.8 954.6,103.2 956.5,131.6 958.3,163.8 960.2,188.7 962.1,209.1 964.0,214.2 965.8,218.8 967.7,233.6 969.5,236.5 971.4,237.5 973.3,238.3 975.1,243.9 977.0,243.9 978.8,243.9 980.7,243.9 982.5,243.9 984.5,243.9 986.3,243.9 988.2,243.9 990.0,243.9 991.9,243.9 993.8,243.9 995.6,243.9 997.5,243.9 999.3,244.0 1001.2,244.0 1003.0,244.0 1004.9,244.0 1006.8,244.0 1008.7,243.9 1010.5,243.9 1012.4,243.9 1014.2,244.8 1016.1,244.9 1018.0,245.0 1019.8,245.0 1021.7,245.0 1023.5,245.0 1025.4,245.0 1027.2,245.0 1029.1,245.0 1031.0,245.0 1032.9,245.0 1034.7,245.0 1036.6,245.0 1038.5,245.0 1040.3,245.0 1042.2,245.0 1044.1,245.0 1045.9,245.0 1047.8,245.0 1049.6,245.0 1051.5,245.0 1053.3,245.0 1055.2,245.0 1057.1,245.0 1059.0,245.0 1060.8,245.0 1062.7,245.0 1064.6,245.0 1066.4,245.0 1068.3,245.0 1070.1,245.0 1072.0,245.0 1073.8,245.0 1075.7,245.0 1077.6,245.0 1079.4,245.0 1081.3,245.0 1083.2,245.0 1085.0,245.0 1086.9,245.0 1088.8,245.0 1090.6,245.0 1092.5,245.0 1094.3,245.0 1096.2,245.0 1098.0,245.0 1099.9,245.0 1101.8,245.0 1103.7,245.0 1105.5,245.0 1107.4,245.0 1109.2,245.0 1111.1,245.0 1112.9,245.0 1114.8,245.0 1116.7,245.0 1118.5,245.0 1120.4,245.0 1122.2,245.0 1124.1,245.0 1126.0,245.0 1127.9,245.0 1129.7,245.0 1131.6,245.0 1133.4,245.0 1135.3,245.0 1137.2,245.0 1140.0,245.0"/>
        <text x="900.0" y="261" font-size="9.5" fill="#64748b" text-anchor="middle">MET (s)</text>
        
  
        <!-- Panel: 🌪️ DYNAMIC PRESSURE (MAX Q) -->
        <rect x="20" y="290" width="565" height="230" rx="6" fill="#0d1527" stroke="#1e293b" stroke-width="1"/>
        <text x="60" y="305" font-size="11" font-weight="bold" fill="#f8fafc">🌪️ DYNAMIC PRESSURE (MAX Q)</text>
        <line x1="60" y1="315.0" x2="540" y2="315.0" stroke="#1e293b" stroke-dasharray="2,2" stroke-width="0.8"/> <text x="54" y="318.0" font-size="9" fill="#f59e0b" text-anchor="end" font-family="monospace">140</text> <line x1="60" y1="360.0" x2="540" y2="360.0" stroke="#1e293b" stroke-dasharray="2,2" stroke-width="0.8"/> <text x="54" y="363.0" font-size="9" fill="#f59e0b" text-anchor="end" font-family="monospace">105</text> <line x1="60" y1="405.0" x2="540" y2="405.0" stroke="#1e293b" stroke-dasharray="2,2" stroke-width="0.8"/> <text x="54" y="408.0" font-size="9" fill="#f59e0b" text-anchor="end" font-family="monospace">70</text> <line x1="60" y1="450.0" x2="540" y2="450.0" stroke="#1e293b" stroke-dasharray="2,2" stroke-width="0.8"/> <text x="54" y="453.0" font-size="9" fill="#f59e0b" text-anchor="end" font-family="monospace">35</text> <line x1="60" y1="495.0" x2="540" y2="495.0" stroke="#1e293b" stroke-dasharray="2,2" stroke-width="0.8"/> <text x="54" y="498.0" font-size="9" fill="#f59e0b" text-anchor="end" font-family="monospace">0</text>
        <line x1="60" y1="335.2" x2="540" y2="335.2" stroke="#ef4444" stroke-dasharray="4,3" stroke-width="1.2"/><text x="535" y="331.2" font-size="8.5" fill="#ef4444" font-weight="bold" text-anchor="end">Max Q: 124.3 kPa</text>
        <line x1="60" y1="315" x2="60" y2="495" stroke="#475569" stroke-width="1"/>
        <line x1="540" y1="315" x2="540" y2="495" stroke="#475569" stroke-width="1"/>
        <line x1="60" y1="495" x2="540" y2="495" stroke="#475569" stroke-width="1"/>
        
        <polyline fill="none" stroke="#f59e0b" stroke-width="2.2" stroke-linecap="round" points="60.0,495.0 61.9,494.3 63.8,491.9 65.6,487.8 67.5,482.7 69.3,475.9 71.2,468.6 73.1,461.5 74.9,455.0 76.8,452.4 78.6,452.2 80.5,452.8 82.4,456.1 84.2,459.9 86.1,473.5 88.0,480.4 89.9,484.7 91.7,486.4 93.6,488.9 95.4,490.7 97.3,492.2 99.1,493.1 101.0,493.8 102.9,494.2 104.7,494.5 106.6,494.7 108.4,494.8 110.3,494.9 112.2,495.0 114.1,495.0 115.9,495.0 117.8,495.0 119.6,495.0 121.5,495.0 123.4,495.0 125.3,495.0 127.1,495.0 129.0,495.0 130.9,495.0 132.7,495.0 134.6,495.0 136.5,495.0 138.4,495.0 140.3,495.0 142.1,495.0 144.0,495.0 145.9,495.0 147.7,495.0 149.6,495.0 151.4,495.0 153.3,495.0 155.1,495.0 157.0,495.0 158.9,495.0 160.7,495.0 162.6,495.0 164.5,495.0 166.3,495.0 168.2,495.0 170.1,495.0 171.9,495.0 173.8,495.0 175.6,495.0 177.5,495.0 179.3,495.0 181.2,495.0 183.1,495.0 184.9,495.0 186.9,495.0 188.7,495.0 190.6,495.0 192.5,495.0 194.3,495.0 196.2,495.0 198.0,495.0 199.9,495.0 201.8,495.0 203.6,495.0 205.5,495.0 207.3,495.0 209.2,495.0 211.1,495.0 213.0,495.0 214.8,495.0 216.7,495.0 218.5,495.0 220.4,495.0 222.3,495.0 224.1,495.0 226.0,495.0 227.9,495.0 229.7,495.0 231.6,495.0 233.4,495.0 235.3,495.0 237.2,495.0 239.0,495.0 240.9,495.0 242.8,495.0 244.6,495.0 246.5,495.0 248.3,495.0 250.2,495.0 252.1,495.0 253.9,495.0 255.8,495.0 257.6,495.0 259.5,495.0 261.4,495.0 263.3,495.0 265.1,495.0 267.0,495.0 268.8,495.0 270.7,495.0 272.6,495.0 274.4,495.0 276.3,495.0 278.1,495.0 280.0,495.0 281.9,495.0 283.7,495.0 285.6,495.0 287.5,495.0 289.4,495.0 291.2,495.0 293.1,495.0 294.9,495.0 296.8,495.0 298.6,495.0 300.5,495.0 302.4,495.0 304.2,495.0 306.1,495.0 308.0,495.0 309.8,495.0 311.7,495.0 313.6,495.0 315.4,495.0 317.3,495.0 319.1,495.0 321.1,495.0 322.9,495.0 324.8,495.0 326.6,495.0 328.5,495.0 330.4,495.0 332.2,495.0 334.1,495.0 336.0,495.0 337.9,495.0 339.7,494.9 341.6,494.7 343.4,494.4 345.3,493.7 347.2,491.9 349.0,486.9 350.9,472.3 352.7,437.4 354.6,380.2 356.5,337.9 358.3,354.9 360.2,403.7 362.1,449.9 364.0,456.6 365.8,463.9 367.7,488.7 369.5,491.3 371.4,492.0 373.3,492.6 375.1,494.9 377.0,494.9 378.8,494.9 380.7,494.9 382.5,494.9 384.5,494.9 386.3,494.9 388.2,494.9 390.0,494.9 391.9,494.9 393.8,494.9 395.6,494.9 397.5,494.9 399.3,494.9 401.2,494.9 403.0,494.9 404.9,494.9 406.8,494.9 408.7,494.9 410.5,494.9 412.4,494.9 414.2,495.0 416.1,495.0 418.0,495.0 419.8,495.0 421.7,495.0 423.5,495.0 425.4,495.0 427.2,495.0 429.1,495.0 431.0,495.0 432.9,495.0 434.7,495.0 436.6,495.0 438.5,495.0 440.3,495.0 442.2,495.0 444.1,495.0 445.9,495.0 447.8,495.0 449.6,495.0 451.5,495.0 453.3,495.0 455.2,495.0 457.1,495.0 459.0,495.0 460.8,495.0 462.7,495.0 464.6,495.0 466.4,495.0 468.3,495.0 470.1,495.0 472.0,495.0 473.8,495.0 475.7,495.0 477.6,495.0 479.4,495.0 481.3,495.0 483.2,495.0 485.0,495.0 486.9,495.0 488.8,495.0 490.6,495.0 492.5,495.0 494.3,495.0 496.2,495.0 498.0,495.0 499.9,495.0 501.8,495.0 503.7,495.0 505.5,495.0 507.4,495.0 509.2,495.0 511.1,495.0 512.9,495.0 514.8,495.0 516.7,495.0 518.5,495.0 520.4,495.0 522.2,495.0 524.1,495.0 526.0,495.0 527.9,495.0 529.7,495.0 531.6,495.0 533.4,495.0 535.3,495.0 537.2,495.0 540.0,495.0"/>
        <text x="300.0" y="511" font-size="9.5" fill="#64748b" text-anchor="middle">MET (s)</text>
        
  
        <!-- Panel: 💥 G-FORCE &amp; ACCELERATION -->
        <rect x="620" y="290" width="565" height="230" rx="6" fill="#0d1527" stroke="#1e293b" stroke-width="1"/>
        <text x="660" y="305" font-size="11" font-weight="bold" fill="#f8fafc">💥 G-FORCE &amp; ACCELERATION</text>
        <line x1="660" y1="315.0" x2="1140" y2="315.0" stroke="#1e293b" stroke-dasharray="2,2" stroke-width="0.8"/> <text x="654" y="318.0" font-size="9" fill="#ec4899" text-anchor="end" font-family="monospace">10</text> <line x1="660" y1="360.0" x2="1140" y2="360.0" stroke="#1e293b" stroke-dasharray="2,2" stroke-width="0.8"/> <text x="654" y="363.0" font-size="9" fill="#ec4899" text-anchor="end" font-family="monospace">8</text> <line x1="660" y1="405.0" x2="1140" y2="405.0" stroke="#1e293b" stroke-dasharray="2,2" stroke-width="0.8"/> <text x="654" y="408.0" font-size="9" fill="#ec4899" text-anchor="end" font-family="monospace">5</text> <line x1="660" y1="450.0" x2="1140" y2="450.0" stroke="#1e293b" stroke-dasharray="2,2" stroke-width="0.8"/> <text x="654" y="453.0" font-size="9" fill="#ec4899" text-anchor="end" font-family="monospace">2</text> <line x1="660" y1="495.0" x2="1140" y2="495.0" stroke="#1e293b" stroke-dasharray="2,2" stroke-width="0.8"/> <text x="654" y="498.0" font-size="9" fill="#ec4899" text-anchor="end" font-family="monospace">0</text>
        <line x1="660" y1="344.3" x2="1140" y2="344.3" stroke="#ec4899" stroke-dasharray="4,3" stroke-width="1.2"/><text x="1135" y="340.3" font-size="8.5" fill="#ec4899" font-weight="bold" text-anchor="end">Peak G: 8.37 G</text>
        <line x1="660" y1="315" x2="660" y2="495" stroke="#475569" stroke-width="1"/>
        <line x1="1140" y1="315" x2="1140" y2="495" stroke="#475569" stroke-width="1"/>
        <line x1="660" y1="495" x2="1140" y2="495" stroke="#475569" stroke-width="1"/>
        
        <polyline fill="none" stroke="#ec4899" stroke-width="2.2" stroke-linecap="round" points="660.0,466.0 661.9,462.2 663.8,461.0 665.6,460.1 667.5,459.2 669.3,458.1 671.2,457.0 673.1,456.1 674.9,456.3 676.8,461.0 678.6,458.1 680.5,452.7 682.4,445.1 684.2,435.2 686.1,469.1 688.0,462.4 689.9,457.9 691.7,455.6 693.6,451.3 695.4,447.3 697.3,443.2 699.1,439.2 701.0,435.1 702.9,430.4 704.7,425.2 706.6,419.4 708.4,494.6 710.3,494.8 712.2,495.0 714.1,495.0 715.9,495.0 717.8,495.0 719.6,495.0 721.5,495.0 723.4,495.0 725.3,495.0 727.1,495.0 729.0,495.0 730.9,495.0 732.7,495.0 734.6,495.0 736.5,495.0 738.4,495.0 740.3,495.0 742.1,495.0 744.0,495.0 745.9,495.0 747.7,495.0 749.6,495.0 751.4,495.0 753.3,495.0 755.1,495.0 757.0,495.0 758.9,495.0 760.7,495.0 762.6,495.0 764.5,495.0 766.3,495.0 768.2,495.0 770.1,495.0 771.9,495.0 773.8,495.0 775.6,495.0 777.5,495.0 779.3,495.0 781.2,495.0 783.1,495.0 784.9,495.0 786.9,495.0 788.7,495.0 790.6,495.0 792.5,495.0 794.3,495.0 796.2,495.0 798.0,495.0 799.9,495.0 801.8,495.0 803.6,495.0 805.5,495.0 807.3,495.0 809.2,495.0 811.1,495.0 813.0,495.0 814.8,495.0 816.7,495.0 818.5,495.0 820.4,495.0 822.3,495.0 824.1,495.0 826.0,495.0 827.9,495.0 829.7,495.0 831.6,495.0 833.4,495.0 835.3,495.0 837.2,495.0 839.0,495.0 840.9,495.0 842.8,495.0 844.6,495.0 846.5,495.0 848.3,495.0 850.2,495.0 852.1,495.0 853.9,495.0 855.8,495.0 857.6,495.0 859.5,495.0 861.4,495.0 863.3,495.0 865.1,495.0 867.0,495.0 868.8,495.0 870.7,495.0 872.6,495.0 874.4,495.0 876.3,495.0 878.1,495.0 880.0,495.0 881.9,495.0 883.7,495.0 885.6,495.0 887.5,495.0 889.4,495.0 891.2,495.0 893.1,495.0 894.9,495.0 896.8,495.0 898.6,495.0 900.5,495.0 902.4,495.0 904.2,495.0 906.1,495.0 908.0,495.0 909.8,495.0 911.7,495.0 913.6,495.0 915.4,495.0 917.3,495.0 919.1,495.0 921.1,495.0 922.9,495.0 924.8,495.0 926.6,495.0 928.5,495.0 930.4,495.0 932.2,495.0 934.1,495.0 936.0,494.8 937.9,494.6 939.7,494.1 941.6,493.0 943.4,490.7 945.3,492.3 947.2,490.9 949.0,484.9 950.9,468.4 952.7,429.5 954.6,372.8 956.5,348.3 958.3,358.4 960.2,376.6 962.1,432.0 964.0,463.3 965.8,417.4 967.7,449.6 969.5,471.8 971.4,475.6 973.3,455.2 975.1,477.0 977.0,475.7 978.8,477.5 980.7,477.2 982.5,478.3 984.5,476.6 986.3,476.6 988.2,475.7 990.0,476.5 991.9,476.6 993.8,477.4 995.6,477.4 997.5,477.0 999.3,475.7 1001.2,475.6 1003.0,475.9 1004.9,476.5 1006.8,477.7 1008.7,477.9 1010.5,476.6 1012.4,477.7 1014.2,451.6 1016.1,476.6 1018.0,477.9 1019.8,477.4 1021.7,477.0 1023.5,476.6 1025.4,476.3 1027.2,476.3 1029.1,476.8 1031.0,477.2 1032.9,477.0 1034.7,477.2 1036.6,477.0 1038.5,477.0 1040.3,477.0 1042.2,477.0 1044.1,477.0 1045.9,477.0 1047.8,477.0 1049.6,477.0 1051.5,477.0 1053.3,477.0 1055.2,477.0 1057.1,477.0 1059.0,477.0 1060.8,477.0 1062.7,477.0 1064.6,477.0 1066.4,477.0 1068.3,477.0 1070.1,477.0 1072.0,477.0 1073.8,477.0 1075.7,477.0 1077.6,477.0 1079.4,477.0 1081.3,477.0 1083.2,477.0 1085.0,477.0 1086.9,477.0 1088.8,477.0 1090.6,477.0 1092.5,477.0 1094.3,477.0 1096.2,477.0 1098.0,477.0 1099.9,477.0 1101.8,477.0 1103.7,477.0 1105.5,477.0 1107.4,477.0 1109.2,477.0 1111.1,477.0 1112.9,477.0 1114.8,477.0 1116.7,477.0 1118.5,477.0 1120.4,477.0 1122.2,477.0 1124.1,477.0 1126.0,477.0 1127.9,477.0 1129.7,477.0 1131.6,477.0 1133.4,477.0 1135.3,477.0 1137.2,477.0 1140.0,495.0"/>
        <text x="900.0" y="511" font-size="9.5" fill="#64748b" text-anchor="middle">MET (s)</text>
        
  
        <!-- Panel: 🧭 GUIDANCE ATTITUDE (PITCH) -->
        <rect x="20" y="540" width="565" height="230" rx="6" fill="#0d1527" stroke="#1e293b" stroke-width="1"/>
        <text x="60" y="555" font-size="11" font-weight="bold" fill="#f8fafc">🧭 GUIDANCE ATTITUDE (PITCH)</text>
        <line x1="60" y1="565.0" x2="540" y2="565.0" stroke="#1e293b" stroke-dasharray="2,2" stroke-width="0.8"/> <text x="54" y="568.0" font-size="9" fill="#06b6d4" text-anchor="end" font-family="monospace">90</text> <line x1="60" y1="610.0" x2="540" y2="610.0" stroke="#1e293b" stroke-dasharray="2,2" stroke-width="0.8"/> <text x="54" y="613.0" font-size="9" fill="#06b6d4" text-anchor="end" font-family="monospace">68</text> <line x1="60" y1="655.0" x2="540" y2="655.0" stroke="#1e293b" stroke-dasharray="2,2" stroke-width="0.8"/> <text x="54" y="658.0" font-size="9" fill="#06b6d4" text-anchor="end" font-family="monospace">45</text> <line x1="60" y1="700.0" x2="540" y2="700.0" stroke="#1e293b" stroke-dasharray="2,2" stroke-width="0.8"/> <text x="54" y="703.0" font-size="9" fill="#06b6d4" text-anchor="end" font-family="monospace">22</text> <line x1="60" y1="745.0" x2="540" y2="745.0" stroke="#1e293b" stroke-dasharray="2,2" stroke-width="0.8"/> <text x="54" y="748.0" font-size="9" fill="#06b6d4" text-anchor="end" font-family="monospace">0</text>
        
        <line x1="60" y1="565" x2="60" y2="745" stroke="#475569" stroke-width="1"/>
        <line x1="540" y1="565" x2="540" y2="745" stroke="#475569" stroke-width="1"/>
        <line x1="60" y1="745" x2="540" y2="745" stroke="#475569" stroke-width="1"/>
        
        <polyline fill="none" stroke="#06b6d4" stroke-width="2.2" stroke-linecap="round" points="60.0,565.1 61.9,565.4 63.8,565.0 65.6,565.0 67.5,565.0 69.3,565.0 71.2,566.8 73.1,570.5 74.9,570.5 76.8,570.1 78.6,570.0 80.5,570.0 82.4,570.0 84.2,570.0 86.1,586.7 88.0,600.0 89.9,603.7 91.7,605.4 93.6,609.3 95.4,614.1 97.3,619.6 99.1,625.5 101.0,631.8 102.9,638.9 104.7,646.6 106.6,650.1 108.4,647.5 110.3,625.2 112.2,603.8 114.1,589.5 115.9,578.1 117.8,566.5 119.6,575.0 121.5,586.6 123.4,595.6 125.3,588.7 127.1,581.8 129.0,575.0 130.9,568.1 132.7,568.9 134.6,576.0 136.5,583.0 138.4,590.0 140.3,596.9 142.1,604.0 144.0,611.0 145.9,618.0 147.7,619.9 149.6,620.1 151.4,620.4 153.3,620.7 155.1,621.0 157.0,621.3 158.9,621.5 160.7,621.8 162.6,622.1 164.5,627.0 166.3,633.8 168.2,640.9 170.1,647.9 171.9,654.9 173.8,661.5 175.6,668.4 177.5,675.4 179.3,682.4 181.2,689.4 183.1,696.4 184.9,703.5 186.9,710.5 188.7,717.5 190.6,724.6 192.5,731.5 194.3,738.5 196.2,745.0 198.0,745.0 199.9,745.0 201.8,745.0 203.6,745.0 205.5,745.0 207.3,745.0 209.2,745.0 211.1,745.0 213.0,745.0 214.8,745.0 216.7,745.0 218.5,745.0 220.4,745.0 222.3,745.0 224.1,745.0 226.0,745.0 227.9,745.0 229.7,745.0 231.6,745.0 233.4,745.0 235.3,745.0 237.2,745.0 239.0,745.0 240.9,745.0 242.8,745.0 244.6,745.0 246.5,745.0 248.3,745.0 250.2,745.0 252.1,745.0 253.9,745.0 255.8,745.0 257.6,745.0 259.5,745.0 261.4,745.0 263.3,745.0 265.1,745.0 267.0,745.0 268.8,745.0 270.7,745.0 272.6,745.0 274.4,745.0 276.3,745.0 278.1,745.0 280.0,745.0 281.9,745.0 283.7,745.0 285.6,745.0 287.5,745.0 289.4,745.0 291.2,745.0 293.1,745.0 294.9,745.0 296.8,745.0 298.6,745.0 300.5,745.0 302.4,745.0 304.2,745.0 306.1,745.0 308.0,745.0 309.8,745.0 311.7,745.0 313.6,745.0 315.4,745.0 317.3,745.0 319.1,745.0 321.1,745.0 322.9,745.0 324.8,745.0 326.6,745.0 328.5,745.0 330.4,745.0 332.2,745.0 334.1,745.0 336.0,745.0 337.9,745.0 339.7,745.0 341.6,745.0 343.4,745.0 345.3,745.0 347.2,745.0 349.0,745.0 350.9,745.0 352.7,745.0 354.6,745.0 356.5,745.0 358.3,745.0 360.2,745.0 362.1,745.0 364.0,745.0 365.8,745.0 367.7,745.0 369.5,745.0 371.4,745.0 373.3,745.0 375.1,584.3 377.0,566.8 378.8,566.9 380.7,566.8 382.5,566.9 384.5,566.8 386.3,566.8 388.2,566.7 390.0,566.7 391.9,566.7 393.8,566.7 395.6,566.9 397.5,566.8 399.3,566.8 401.2,566.8 403.0,566.7 404.9,566.7 406.8,566.7 408.7,566.8 410.5,566.8 412.4,566.8 414.2,568.9 416.1,578.4 418.0,577.6 419.8,577.5 421.7,577.5 423.5,577.6 425.4,577.7 427.2,577.8 429.1,577.8 431.0,577.8 432.9,577.8 434.7,577.8 436.6,577.8 438.5,577.8 440.3,577.8 442.2,577.8 444.1,577.8 445.9,577.8 447.8,577.8 449.6,577.8 451.5,577.8 453.3,577.8 455.2,577.8 457.1,577.8 459.0,577.8 460.8,577.8 462.7,577.8 464.6,577.8 466.4,577.8 468.3,577.8 470.1,577.8 472.0,577.8 473.8,577.8 475.7,577.8 477.6,577.8 479.4,577.8 481.3,577.8 483.2,577.8 485.0,577.8 486.9,577.8 488.8,577.8 490.6,577.8 492.5,577.8 494.3,577.8 496.2,577.8 498.0,577.8 499.9,577.8 501.8,577.8 503.7,577.8 505.5,577.8 507.4,577.8 509.2,577.8 511.1,577.8 512.9,577.8 514.8,577.8 516.7,577.8 518.5,577.8 520.4,577.8 522.2,577.8 524.1,577.8 526.0,577.8 527.9,577.8 529.7,577.8 531.6,577.8 533.4,577.8 535.3,577.8 537.2,577.8 540.0,565.0"/>
        <text x="300.0" y="761" font-size="9.5" fill="#64748b" text-anchor="middle">MET (s)</text>
        
  
        <!-- Panel: 🗺️ EQUATORIAL DOWNRANGE TRAVEL -->
        <rect x="620" y="540" width="565" height="230" rx="6" fill="#0d1527" stroke="#1e293b" stroke-width="1"/>
        <text x="660" y="555" font-size="11" font-weight="bold" fill="#f8fafc">🗺️ EQUATORIAL DOWNRANGE TRAVEL</text>
        <line x1="660" y1="565.0" x2="1140" y2="565.0" stroke="#1e293b" stroke-dasharray="2,2" stroke-width="0.8"/> <text x="654" y="568.0" font-size="9" fill="#22c55e" text-anchor="end" font-family="monospace">300</text> <line x1="660" y1="610.0" x2="1140" y2="610.0" stroke="#1e293b" stroke-dasharray="2,2" stroke-width="0.8"/> <text x="654" y="613.0" font-size="9" fill="#22c55e" text-anchor="end" font-family="monospace">225</text> <line x1="660" y1="655.0" x2="1140" y2="655.0" stroke="#1e293b" stroke-dasharray="2,2" stroke-width="0.8"/> <text x="654" y="658.0" font-size="9" fill="#22c55e" text-anchor="end" font-family="monospace">150</text> <line x1="660" y1="700.0" x2="1140" y2="700.0" stroke="#1e293b" stroke-dasharray="2,2" stroke-width="0.8"/> <text x="654" y="703.0" font-size="9" fill="#22c55e" text-anchor="end" font-family="monospace">75</text> <line x1="660" y1="745.0" x2="1140" y2="745.0" stroke="#1e293b" stroke-dasharray="2,2" stroke-width="0.8"/> <text x="654" y="748.0" font-size="9" fill="#22c55e" text-anchor="end" font-family="monospace">0</text>
        <line x1="660" y1="584.2" x2="1140" y2="584.2" stroke="#22c55e" stroke-dasharray="4,3" stroke-width="1.2"/><text x="1135" y="580.2" font-size="8.5" fill="#22c55e" font-weight="bold" text-anchor="end">Touchdown 268 km West</text>
        <line x1="660" y1="565" x2="660" y2="745" stroke="#475569" stroke-width="1"/>
        <line x1="1140" y1="565" x2="1140" y2="745" stroke="#475569" stroke-width="1"/>
        <line x1="660" y1="745" x2="1140" y2="745" stroke="#475569" stroke-width="1"/>
        
        <polyline fill="none" stroke="#22c55e" stroke-width="2.2" stroke-linecap="round" points="660.0,745.0 661.9,745.0 663.8,745.0 665.6,745.0 667.5,745.0 669.3,745.0 671.2,745.0 673.1,745.0 674.9,745.0 676.8,744.9 678.6,744.9 680.5,744.8 682.4,744.8 684.2,744.7 686.1,744.6 688.0,744.5 689.9,744.3 691.7,744.1 693.6,743.7 695.4,743.3 697.3,742.7 699.1,742.0 701.0,741.2 702.9,740.2 704.7,739.0 706.6,737.7 708.4,736.1 710.3,734.4 712.2,732.8 714.1,731.1 715.9,729.6 717.8,728.0 719.6,726.4 721.5,724.8 723.4,723.2 725.3,721.7 727.1,720.2 729.0,718.7 730.9,717.2 732.7,715.7 734.6,714.2 736.5,712.7 738.4,711.2 740.3,709.8 742.1,708.3 744.0,706.9 745.9,705.5 747.7,705.1 749.6,705.0 751.4,705.0 753.3,704.9 755.1,704.8 757.0,704.8 758.9,704.7 760.7,704.7 762.6,704.6 764.5,703.6 766.3,702.2 768.2,700.8 770.1,699.4 771.9,698.0 773.8,696.7 775.6,695.4 777.5,694.0 779.3,692.6 781.2,691.2 783.1,689.9 784.9,688.5 786.9,687.1 788.7,685.8 790.6,684.4 792.5,683.1 794.3,681.7 796.2,680.4 798.0,679.1 799.9,677.8 801.8,676.4 803.6,675.1 805.5,673.7 807.3,672.4 809.2,671.1 811.1,669.8 813.0,668.4 814.8,667.1 816.7,665.7 818.5,664.4 820.4,663.1 822.3,662.6 824.1,662.5 826.0,662.4 827.9,662.4 829.7,662.3 831.6,662.3 833.4,662.2 835.3,661.5 837.2,660.2 839.0,658.8 840.9,657.5 842.8,656.1 844.6,654.8 846.5,653.5 848.3,652.1 850.2,650.8 852.1,649.4 853.9,648.0 855.8,646.7 857.6,645.3 859.5,644.0 861.4,642.6 863.3,641.2 865.1,639.8 867.0,638.4 868.8,637.5 870.7,637.4 872.6,637.3 874.4,637.3 876.3,637.2 878.1,637.2 880.0,636.1 881.9,635.4 883.7,635.3 885.6,635.3 887.5,635.2 889.4,635.1 891.2,634.7 893.1,633.3 894.9,632.9 896.8,632.5 898.6,631.1 900.5,629.7 902.4,628.2 904.2,627.4 906.1,626.5 908.0,625.1 909.8,623.6 911.7,622.2 913.6,621.4 915.4,620.8 917.3,619.3 919.1,617.8 921.1,616.3 922.9,614.8 924.8,613.2 926.6,611.7 928.5,610.1 930.4,608.6 932.2,607.0 934.1,605.3 936.0,603.8 937.9,602.1 939.7,600.5 941.6,598.9 943.4,597.2 945.3,595.5 947.2,593.9 949.0,592.2 950.9,590.5 952.7,588.9 954.6,587.4 956.5,586.3 958.3,585.4 960.2,584.8 962.1,584.4 964.0,584.2 965.8,584.0 967.7,583.9 969.5,583.8 971.4,583.8 973.3,583.8 975.1,583.7 977.0,583.7 978.8,583.7 980.7,583.7 982.5,583.7 984.5,583.7 986.3,583.7 988.2,583.7 990.0,583.7 991.9,583.7 993.8,583.7 995.6,583.7 997.5,583.7 999.3,583.7 1001.2,583.7 1003.0,583.7 1004.9,583.7 1006.8,583.7 1008.7,583.7 1010.5,583.7 1012.4,583.7 1014.2,583.7 1016.1,583.7 1018.0,583.7 1019.8,583.7 1021.7,583.7 1023.5,583.7 1025.4,583.7 1027.2,583.7 1029.1,583.7 1031.0,583.7 1032.9,583.7 1034.7,583.7 1036.6,583.7 1038.5,583.7 1040.3,583.7 1042.2,583.7 1044.1,583.7 1045.9,583.7 1047.8,583.7 1049.6,583.7 1051.5,583.7 1053.3,583.7 1055.2,583.7 1057.1,583.7 1059.0,583.7 1060.8,583.7 1062.7,583.7 1064.6,583.7 1066.4,583.7 1068.3,583.7 1070.1,583.7 1072.0,583.7 1073.8,583.7 1075.7,583.7 1077.6,583.7 1079.4,583.7 1081.3,583.7 1083.2,583.7 1085.0,583.7 1086.9,583.7 1088.8,583.7 1090.6,583.7 1092.5,583.7 1094.3,583.7 1096.2,583.7 1098.0,583.7 1099.9,583.7 1101.8,583.7 1103.7,583.7 1105.5,583.7 1107.4,583.7 1109.2,583.7 1111.1,583.7 1112.9,583.7 1114.8,583.7 1116.7,583.7 1118.5,583.7 1120.4,583.7 1122.2,583.7 1124.1,583.7 1126.0,583.7 1127.9,583.7 1129.7,583.7 1131.6,583.7 1133.4,583.7 1135.3,583.7 1137.2,583.7 1140.0,276.5"/>
        <text x="900.0" y="761" font-size="9.5" fill="#64748b" text-anchor="middle">MET (s)</text>
        
</svg>
