<svg xmlns="http://www.w3.org/2000/svg" viewBox="0 0 880 420" width="100%" height="auto" style="background:#0b0f19; border-radius: 8px; font-family: -apple-system, BlinkMacSystemFont, sans-serif;">
  <rect width="880" height="420" fill="#0b0f19" rx="8"/>
  
  <!-- Title & Legend -->
  <text x="80" y="28" font-size="14" font-weight="bold" fill="#f8fafc">CSA-06: Autonomous Suborbital Flight & Recovery (245.0 km)</text>
  <circle cx="620" cy="24" r="5" fill="#38bdf8"/>
  <text x="630" y="28" font-size="12" fill="#38bdf8">Altitude (km)</text>
  <circle cx="740" cy="24" r="5" fill="#f43f5e"/>
  <text x="750" y="28" font-size="12" fill="#f43f5e">Velocity (m/s)</text>

  <!-- Space boundary 70km -->
  <line x1="80" y1="276.5" x2="800" y2="276.5" stroke="#a855f7" stroke-dasharray="6,4" stroke-width="1.5"/>
  <text x="790" y="270.5" font-size="11" fill="#a855f7" font-weight="bold" text-anchor="end">Space Boundary (Kármán 70 km)</text>

  <!-- Grid & Ticks -->
  <line x1="80" y1="50.0" x2="800" y2="50.0" stroke="#1e293b" stroke-dasharray="3,3" stroke-width="1"/><text x="70" y="54.0" font-size="11" fill="#38bdf8" text-anchor="end" font-family="monospace">260 km</text><text x="810" y="54.0" font-size="11" fill="#f43f5e" text-anchor="start" font-family="monospace">1800 m/s</text><line x1="80" y1="112.0" x2="800" y2="112.0" stroke="#1e293b" stroke-dasharray="3,3" stroke-width="1"/><text x="70" y="116.0" font-size="11" fill="#38bdf8" text-anchor="end" font-family="monospace">208 km</text><text x="810" y="116.0" font-size="11" fill="#f43f5e" text-anchor="start" font-family="monospace">1440 m/s</text><line x1="80" y1="174.0" x2="800" y2="174.0" stroke="#1e293b" stroke-dasharray="3,3" stroke-width="1"/><text x="70" y="178.0" font-size="11" fill="#38bdf8" text-anchor="end" font-family="monospace">156 km</text><text x="810" y="178.0" font-size="11" fill="#f43f5e" text-anchor="start" font-family="monospace">1080 m/s</text><line x1="80" y1="236.0" x2="800" y2="236.0" stroke="#1e293b" stroke-dasharray="3,3" stroke-width="1"/><text x="70" y="240.0" font-size="11" fill="#38bdf8" text-anchor="end" font-family="monospace">104 km</text><text x="810" y="240.0" font-size="11" fill="#f43f5e" text-anchor="start" font-family="monospace">720 m/s</text><line x1="80" y1="298.0" x2="800" y2="298.0" stroke="#1e293b" stroke-dasharray="3,3" stroke-width="1"/><text x="70" y="302.0" font-size="11" fill="#38bdf8" text-anchor="end" font-family="monospace">52 km</text><text x="810" y="302.0" font-size="11" fill="#f43f5e" text-anchor="start" font-family="monospace">360 m/s</text><line x1="80" y1="360.0" x2="800" y2="360.0" stroke="#1e293b" stroke-dasharray="3,3" stroke-width="1"/><text x="70" y="364.0" font-size="11" fill="#38bdf8" text-anchor="end" font-family="monospace">0 km</text><text x="810" y="364.0" font-size="11" fill="#f43f5e" text-anchor="start" font-family="monospace">0 m/s</text><line x1="80.0" y1="50" x2="80.0" y2="360" stroke="#1e293b" stroke-dasharray="3,3" stroke-width="1"/><text x="80.0" y="380" font-size="11" fill="#94a3b8" text-anchor="middle" font-family="monospace">0s</text><line x1="200.0" y1="50" x2="200.0" y2="360" stroke="#1e293b" stroke-dasharray="3,3" stroke-width="1"/><text x="200.0" y="380" font-size="11" fill="#94a3b8" text-anchor="middle" font-family="monospace">284s</text><line x1="320.0" y1="50" x2="320.0" y2="360" stroke="#1e293b" stroke-dasharray="3,3" stroke-width="1"/><text x="320.0" y="380" font-size="11" fill="#94a3b8" text-anchor="middle" font-family="monospace">568s</text><line x1="440.0" y1="50" x2="440.0" y2="360" stroke="#1e293b" stroke-dasharray="3,3" stroke-width="1"/><text x="440.0" y="380" font-size="11" fill="#94a3b8" text-anchor="middle" font-family="monospace">852s</text><line x1="560.0" y1="50" x2="560.0" y2="360" stroke="#1e293b" stroke-dasharray="3,3" stroke-width="1"/><text x="560.0" y="380" font-size="11" fill="#94a3b8" text-anchor="middle" font-family="monospace">1136s</text><line x1="680.0" y1="50" x2="680.0" y2="360" stroke="#1e293b" stroke-dasharray="3,3" stroke-width="1"/><text x="680.0" y="380" font-size="11" fill="#94a3b8" text-anchor="middle" font-family="monospace">1420s</text><line x1="800.0" y1="50" x2="800.0" y2="360" stroke="#1e293b" stroke-dasharray="3,3" stroke-width="1"/><text x="800.0" y="380" font-size="11" fill="#94a3b8" text-anchor="middle" font-family="monospace">1705s</text>

  <!-- Axes -->
  <line x1="80" y1="50" x2="80" y2="360" stroke="#475569" stroke-width="1.5"/>
  <line x1="800" y1="50" x2="800" y2="360" stroke="#475569" stroke-width="1.5"/>
  <line x1="80" y1="360" x2="800" y2="360" stroke="#475569" stroke-width="1.5"/>

  <!-- Plot curves -->
  <polyline fill="none" stroke="#38bdf8" stroke-width="2.5" stroke-linecap="round" points="80.0,359.9 81.7,359.9 83.4,359.9 85.1,359.9 86.8,359.9 88.5,359.9 90.2,359.9 91.9,359.9 93.6,359.9 95.2,359.9 96.9,359.9 98.6,359.9 100.3,359.9 102.0,359.9 103.7,359.9 105.4,359.9 107.1,359.9 108.8,359.9 110.5,359.9 112.2,359.9 113.9,359.9 115.6,359.9 117.2,359.9 118.9,359.9 120.7,359.9 122.4,359.9 124.0,359.9 125.7,359.9 127.4,359.9 129.1,359.9 130.8,359.9 132.5,359.9 134.2,359.9 135.9,359.9 137.6,359.9 139.3,359.9 141.0,359.9 142.7,359.9 144.4,359.9 146.0,359.9 147.7,359.9 149.4,359.9 151.2,359.9 152.8,359.9 154.5,359.9 156.2,359.9 157.9,359.9 159.6,359.9 161.3,359.9 163.0,359.9 164.7,359.9 166.4,359.9 168.1,359.9 169.8,359.9 171.5,359.9 173.2,359.9 174.8,359.9 176.5,359.9 178.2,359.9 179.9,359.9 181.6,359.9 183.3,359.9 185.0,359.9 186.7,359.9 188.4,359.9 190.1,359.9 191.8,359.9 193.5,359.9 195.2,359.9 196.8,359.9 198.6,359.9 200.3,359.9 202.0,359.9 203.6,359.9 205.3,359.9 207.0,359.9 208.7,359.9 210.4,359.9 212.1,359.9 213.8,359.9 215.5,359.9 217.2,359.9 218.9,359.9 220.6,359.9 222.3,359.9 224.0,359.9 225.6,359.9 227.3,359.9 229.1,359.7 230.8,359.4 232.4,358.9 234.1,358.3 235.8,357.4 237.5,356.3 239.2,355.1 240.9,353.6 242.6,352.0 244.3,350.4 246.0,348.6 247.7,346.6 249.4,344.4 251.1,342.3 252.8,341.9 254.4,341.9 256.1,341.8 257.8,339.6 259.6,337.0 261.2,334.2 262.9,330.9 264.6,327.4 266.3,323.3 268.0,318.6 269.7,313.4 271.4,307.5 273.1,300.7 274.8,293.3 276.5,286.0 278.2,278.8 279.9,271.8 281.6,264.9 283.2,258.2 284.9,251.6 286.6,248.0 288.3,247.7 290.0,247.4 291.7,247.2 293.4,246.9 295.1,246.7 296.8,246.4 298.5,246.2 300.2,245.9 301.9,245.6 303.6,245.4 305.2,245.1 306.9,244.9 308.7,244.6 310.4,244.4 312.0,244.1 313.7,243.9 315.4,243.6 317.1,243.4 318.8,243.1 320.5,242.9 322.2,242.6 323.9,242.3 325.6,242.1 327.3,241.8 329.0,241.6 330.7,237.8 332.4,231.7 334.0,225.7 335.7,219.8 337.4,214.0 339.1,210.6 340.8,210.4 342.5,210.2 344.2,210.0 345.9,209.7 347.6,209.5 349.3,206.5 351.0,201.1 352.7,196.0 354.4,190.8 356.1,185.7 357.8,180.8 359.5,176.0 361.2,171.3 362.8,166.8 364.5,162.3 366.2,158.1 367.9,153.8 369.6,149.7 371.3,145.6 373.0,141.7 374.7,137.9 376.4,134.1 378.1,130.9 379.8,127.4 381.5,123.9 383.2,120.6 384.9,119.6 386.6,119.5 388.3,119.3 390.0,119.2 391.7,119.1 393.4,118.9 395.1,118.8 396.8,116.6 398.5,113.5 400.2,110.5 401.9,108.2 403.6,108.1 405.2,107.9 407.0,107.8 408.7,107.7 410.4,107.6 412.0,107.5 413.7,107.4 415.4,107.3 417.2,107.2 418.8,107.1 420.5,106.9 422.2,106.8 423.9,106.7 425.6,106.6 427.3,106.5 429.0,106.4 430.7,106.3 432.4,106.2 434.1,106.1 435.8,106.0 437.5,105.8 439.2,105.7 440.8,105.6 442.6,105.5 444.3,105.4 446.0,105.3 447.6,105.2 449.3,105.1 451.0,105.0 452.7,104.9 454.4,104.8 456.1,104.7 457.8,104.5 459.5,104.4 461.2,104.3 462.9,104.2 464.6,104.1 466.3,104.0 468.0,103.9 469.7,103.8 471.4,103.7 473.1,103.6 474.8,103.5 476.4,103.4 478.1,103.3 479.8,103.2 481.6,102.7 483.2,100.1 484.9,97.7 486.6,95.3 488.3,93.1 490.0,90.9 491.7,88.9 493.4,86.9 495.1,85.0 496.8,83.2 498.5,81.6 500.2,80.0 501.9,78.6 503.6,78.3 505.2,77.0 507.0,75.7 508.7,74.5 510.4,73.4 512.0,72.5 513.7,71.6 515.4,70.8 517.1,70.1 518.8,69.5 520.5,69.0 522.2,68.6 523.9,68.3 525.6,68.0 527.3,67.9 529.0,67.9 530.7,67.9 532.4,68.1 534.1,68.4 535.8,68.7 537.5,69.2 539.2,69.7 540.8,70.3 542.6,71.1 544.3,71.9 546.0,72.8 547.6,73.8 549.3,74.9 551.0,76.1 552.7,77.4 554.4,78.8 556.1,80.3 557.8,81.9 559.5,83.6 561.2,85.4 562.9,87.3 564.6,89.3 566.3,91.4 568.0,93.5 569.6,95.8 571.3,98.2 573.0,100.7 574.8,103.3 576.4,106.0 578.1,108.8 579.8,111.7 581.5,114.7 583.2,117.8 584.9,121.0 586.6,124.3 588.3,127.7 590.0,131.2 591.7,134.9 593.4,138.6 595.1,142.4 596.8,146.4 598.4,150.5 600.1,154.7 601.8,159.0 603.5,163.4 605.2,167.9 606.9,172.6 608.6,177.3 610.3,182.2 612.0,187.3 613.7,192.4 615.4,197.4 617.1,202.7 618.8,208.2 620.4,213.9 622.1,219.6 623.9,225.5 625.6,231.5 627.2,237.7 628.9,244.0 630.6,250.4 632.3,257.0 634.0,263.7 635.7,270.6 637.4,277.6 639.1,284.8 640.8,292.1 642.5,299.5 644.2,307.1 645.9,314.9 647.6,322.7 649.2,330.4 650.9,337.5 652.6,343.0 654.3,346.7 656.0,348.9 657.7,350.2 659.4,351.4 661.1,352.4 662.8,353.3 664.5,354.1 666.2,354.9 667.9,355.6 669.6,356.2 671.2,356.5 673.0,356.7 674.7,356.9 676.4,356.9 678.0,356.9 679.7,357.0 681.4,357.0 683.1,357.1 684.8,357.3 686.5,357.5 688.2,357.7 689.9,357.9 691.6,358.1 693.3,358.2 695.0,358.2 696.7,358.2 698.4,358.3 700.0,358.3 701.7,358.3 703.4,358.3 705.2,358.3 706.8,358.3 708.5,358.3 710.2,358.3 711.9,358.3 713.6,358.3 715.3,358.3 717.0,358.3 718.7,358.3 720.4,358.3 722.1,358.3 723.8,358.3 725.5,358.3 727.2,358.3 728.8,358.3 730.5,358.3 732.2,358.3 733.9,358.3 735.6,358.3 737.3,358.3 739.0,358.3 740.7,358.3 742.4,358.3 744.1,358.3 745.8,358.3 747.5,358.3 749.2,358.4 750.8,358.4 752.6,358.4 754.3,358.4 756.0,358.4 757.6,358.4 759.3,358.4 761.0,358.4 762.7,358.4 764.4,358.4 766.1,358.4 767.8,358.4 769.5,358.4 771.2,358.4 772.9,358.5 774.6,358.5 776.3,358.5 778.0,358.6 779.6,358.6 781.3,358.6 783.0,358.7 784.8,358.7 786.4,358.7 788.1,358.8 789.8,358.8 791.5,358.8 793.2,358.8 794.9,358.9 796.6,358.9 798.3,358.9 800.0,358.9"/>
  <polyline fill="none" stroke="#f43f5e" stroke-width="2" stroke-linecap="round" points="80.0,360.0 81.7,360.0 83.4,360.0 85.1,360.0 86.8,360.0 88.5,360.0 90.2,360.0 91.9,360.0 93.6,360.0 95.2,360.0 96.9,360.0 98.6,360.0 100.3,360.0 102.0,360.0 103.7,360.0 105.4,360.0 107.1,360.0 108.8,360.0 110.5,360.0 112.2,360.0 113.9,360.0 115.6,360.0 117.2,360.0 118.9,360.0 120.7,360.0 122.4,360.0 124.0,360.0 125.7,360.0 127.4,360.0 129.1,360.0 130.8,360.0 132.5,360.0 134.2,360.0 135.9,360.0 137.6,360.0 139.3,360.0 141.0,360.0 142.7,360.0 144.4,360.0 146.0,360.0 147.7,360.0 149.4,360.0 151.2,360.0 152.8,360.0 154.5,360.0 156.2,360.0 157.9,360.0 159.6,360.0 161.3,360.0 163.0,360.0 164.7,360.0 166.4,360.0 168.1,360.0 169.8,360.0 171.5,360.0 173.2,360.0 174.8,360.0 176.5,360.0 178.2,360.0 179.9,360.0 181.6,360.0 183.3,360.0 185.0,360.0 186.7,360.0 188.4,360.0 190.1,360.0 191.8,360.0 193.5,360.0 195.2,360.0 196.8,360.0 198.6,360.0 200.3,360.0 202.0,360.0 203.6,360.0 205.3,360.0 207.0,360.0 208.7,360.0 210.4,360.0 212.1,360.0 213.8,360.0 215.5,360.0 217.2,360.0 218.9,360.0 220.6,360.0 222.3,360.0 224.0,360.0 225.6,360.0 227.3,357.7 229.1,351.7 230.8,345.4 232.4,338.9 234.1,332.1 235.8,325.3 237.5,318.2 239.2,311.0 240.9,304.9 242.6,301.5 244.3,297.9 246.0,292.4 247.7,283.5 249.4,284.3 251.1,280.1 252.8,279.2 254.4,279.0 256.1,278.7 257.8,271.9 259.6,262.1 261.2,250.2 262.9,236.2 264.6,220.4 266.3,202.0 268.0,181.0 269.7,157.2 271.4,130.5 273.1,99.9 274.8,90.6 276.5,96.2 278.2,101.7 279.9,107.0 281.6,112.2 283.2,117.4 284.9,122.4 286.6,125.2 288.3,125.4 290.0,125.6 291.7,125.8 293.4,126.0 295.1,126.2 296.8,126.4 298.5,126.6 300.2,126.8 301.9,127.0 303.6,127.2 305.2,127.4 306.9,127.6 308.7,127.8 310.4,128.0 312.0,128.2 313.7,128.4 315.4,128.6 317.1,128.8 318.8,128.9 320.5,129.2 322.2,129.3 323.9,129.5 325.6,129.7 327.3,129.9 329.0,130.1 330.7,133.1 332.4,137.9 334.0,142.6 335.7,147.2 337.4,151.8 339.1,154.6 340.8,154.7 342.5,154.9 344.2,155.1 345.9,155.3 347.6,155.5 349.3,157.9 351.0,162.3 352.7,166.5 354.4,170.8 356.1,175.1 357.8,179.3 359.5,183.4 361.2,187.5 362.8,191.4 364.5,195.5 366.2,199.3 367.9,203.2 369.6,207.1 371.3,210.9 373.0,214.7 374.7,218.5 376.4,222.2 378.1,225.6 379.8,229.2 381.5,232.8 383.2,236.4 384.9,237.6 386.6,237.7 388.3,237.9 390.0,238.0 391.7,238.1 393.4,238.3 395.1,238.4 396.8,240.9 398.5,244.4 400.2,247.9 401.9,250.7 403.6,250.8 405.2,251.0 407.0,251.1 408.7,251.3 410.4,251.4 412.0,251.5 413.7,251.7 415.4,251.8 417.2,251.9 418.8,252.1 420.5,252.2 422.2,252.3 423.9,252.5 425.6,252.6 427.3,252.7 429.0,252.9 430.7,253.0 432.4,253.2 434.1,253.3 435.8,253.4 437.5,253.5 439.2,253.7 440.8,253.8 442.6,253.9 444.3,254.1 446.0,254.2 447.6,254.4 449.3,254.5 451.0,254.6 452.7,254.8 454.4,254.9 456.1,255.0 457.8,255.2 459.5,255.3 461.2,255.4 462.9,255.6 464.6,255.7 466.3,255.8 468.0,256.0 469.7,256.1 471.4,256.2 473.1,256.4 474.8,256.5 476.4,256.6 478.1,256.8 479.8,256.9 481.6,257.5 483.2,260.8 484.9,264.0 486.6,267.3 488.3,270.4 490.0,273.5 491.7,276.6 493.4,279.6 495.1,282.7 496.8,285.6 498.5,288.4 500.2,291.2 501.9,293.8 503.6,294.3 505.2,296.9 507.0,299.4 508.7,301.9 510.4,304.2 512.0,306.4 513.7,308.5 515.4,310.4 517.1,312.1 518.8,313.7 520.5,315.0 522.2,316.1 523.9,317.0 525.6,317.6 527.3,318.0 529.0,318.1 530.7,317.9 532.4,317.4 534.1,316.7 535.8,315.7 537.5,314.5 539.2,313.1 540.8,311.5 542.6,309.7 544.3,307.7 546.0,305.6 547.6,303.4 549.3,301.0 551.0,298.6 552.7,296.0 554.4,293.4 556.1,290.6 557.8,287.8 559.5,284.9 561.2,282.0 562.9,279.0 564.6,276.0 566.3,272.9 568.0,269.7 569.6,266.5 571.3,263.3 573.0,260.0 574.8,256.7 576.4,253.4 578.1,250.0 579.8,246.5 581.5,243.1 583.2,239.6 584.9,236.0 586.6,232.5 588.3,228.9 590.0,225.2 591.7,221.5 593.4,217.8 595.1,214.0 596.8,210.2 598.4,206.3 600.1,202.4 601.8,198.5 603.5,194.5 605.2,190.4 606.9,186.3 608.6,182.2 610.3,178.0 612.0,173.8 613.7,169.5 615.4,165.4 617.1,161.0 618.8,156.5 620.4,151.9 622.1,147.4 623.9,142.7 625.6,138.0 627.2,133.2 628.9,128.3 630.6,123.3 632.3,118.3 634.0,113.1 635.7,107.9 637.4,102.6 639.1,97.2 640.8,91.8 642.5,86.5 644.2,81.5 645.9,77.5 647.6,77.0 649.2,88.0 650.9,126.8 652.6,194.9 654.3,255.4 656.0,301.8 657.7,316.7 659.4,322.0 661.1,325.9 662.8,328.8 664.5,331.1 666.2,332.9 667.9,334.4 669.6,345.3 671.2,351.7 673.0,352.5 674.7,353.0 676.4,353.0 678.0,353.1 679.7,352.9 681.4,352.9 683.1,353.1 684.8,353.1 686.5,352.9 688.2,352.8 689.9,352.8 691.6,353.5 693.3,358.9 695.0,358.9 696.7,358.9 698.4,358.9 700.0,358.8 701.7,358.9 703.4,358.8 705.2,358.8 706.8,358.9 708.5,358.8 710.2,358.9 711.9,358.8 713.6,358.8 715.3,358.8 717.0,358.8 718.7,358.8 720.4,358.8 722.1,358.8 723.8,358.9 725.5,358.9 727.2,358.9 728.8,358.9 730.5,358.8 732.2,358.8 733.9,358.9 735.6,358.9 737.3,358.8 739.0,358.9 740.7,358.9 742.4,358.9 744.1,358.9 745.8,358.8 747.5,358.8 749.2,358.8 750.8,358.9 752.6,358.9 754.3,358.9 756.0,358.9 757.6,358.9 759.3,358.9 761.0,358.9 762.7,358.9 764.4,358.8 766.1,358.8 767.8,358.8 769.5,358.9 771.2,358.9 772.9,358.9 774.6,358.9 776.3,358.9 778.0,358.9 779.6,358.9 781.3,358.9 783.0,358.9 784.8,358.9 786.4,358.8 788.1,358.9 789.8,358.9 791.5,358.9 793.2,358.9 794.9,358.9 796.6,358.9 798.3,359.8 800.0,360.0"/>

  <!-- Apogee Marker -->
  <circle cx="528.8" cy="67.9" r="5" fill="#38bdf8" stroke="#ffffff" stroke-width="2"/>
  <text x="528.8" y="55.9" font-size="11" font-weight="bold" fill="#38bdf8" text-anchor="middle">Apogee: 245.0 km (T+1063s)</text>

  <!-- Touchdown Marker -->
  <circle cx="800.0" cy="358.9" r="5" fill="#22c55e" stroke="#ffffff" stroke-width="2"/>
  <text x="790" y="343.9" font-size="11" font-weight="bold" fill="#22c55e" text-anchor="end">Soft Touchdown: T+1705s (28.4 min)</text>

  <!-- Axis Titles -->
  <text x="440.0" y="405" font-size="12" fill="#94a3b8" text-anchor="middle">Mission Elapsed Time (MET) in seconds (~28.3 min)</text>
  <text transform="rotate(-90)" x="-205.0" y="24" font-size="11" fill="#38bdf8" text-anchor="middle">Altitude (km)</text>
  <text transform="rotate(90)" x="205.0" y="-856" font-size="11" fill="#f43f5e" text-anchor="middle">Velocity (m/s)</text>
</svg>
