<svg xmlns="http://www.w3.org/2000/svg" viewBox="0 0 880 420" width="100%" height="auto" style="background:#0b0f19; border-radius: 8px; font-family: -apple-system, BlinkMacSystemFont, 'Segoe UI', Roboto, Helvetica, Arial, sans-serif;">
  <rect width="880" height="420" fill="#0b0f19" rx="8"/>
  
  <!-- Title & Subtitle -->
  <text x="440.0" y="26" font-size="14" font-weight="bold" fill="#f8fafc" text-anchor="middle">COROLT SPACE AGENCY  |  FLIGHT TELEMETRY: MISSION CSA-01</text>
  <text x="440.0" y="42" font-size="11" fill="#64748b" text-anchor="middle">Corolt-I (Baseline) (Corolt-I Family) • 🟢 Historical Success | Apogee 6.4 km | Parachute landing</text>

  <!-- Grid & Ticks -->
  <line x1="80" y1="50.0" x2="800" y2="50.0" stroke="#1e293b" stroke-dasharray="3,3" stroke-width="1"/>
    <text x="70" y="54.0" font-size="11" fill="#38bdf8" text-anchor="end" font-family="monospace">7000 m</text>
    <text x="810" y="54.0" font-size="11" fill="#f43f5e" text-anchor="start" font-family="monospace">300 m/s</text>
    <line x1="80" y1="112.0" x2="800" y2="112.0" stroke="#1e293b" stroke-dasharray="3,3" stroke-width="1"/>
    <text x="70" y="116.0" font-size="11" fill="#38bdf8" text-anchor="end" font-family="monospace">5600 m</text>
    <text x="810" y="116.0" font-size="11" fill="#f43f5e" text-anchor="start" font-family="monospace">240 m/s</text>
    <line x1="80" y1="174.0" x2="800" y2="174.0" stroke="#1e293b" stroke-dasharray="3,3" stroke-width="1"/>
    <text x="70" y="178.0" font-size="11" fill="#38bdf8" text-anchor="end" font-family="monospace">4200 m</text>
    <text x="810" y="178.0" font-size="11" fill="#f43f5e" text-anchor="start" font-family="monospace">180 m/s</text>
    <line x1="80" y1="236.0" x2="800" y2="236.0" stroke="#1e293b" stroke-dasharray="3,3" stroke-width="1"/>
    <text x="70" y="240.0" font-size="11" fill="#38bdf8" text-anchor="end" font-family="monospace">2800 m</text>
    <text x="810" y="240.0" font-size="11" fill="#f43f5e" text-anchor="start" font-family="monospace">120 m/s</text>
    <line x1="80" y1="298.0" x2="800" y2="298.0" stroke="#1e293b" stroke-dasharray="3,3" stroke-width="1"/>
    <text x="70" y="302.0" font-size="11" fill="#38bdf8" text-anchor="end" font-family="monospace">1400 m</text>
    <text x="810" y="302.0" font-size="11" fill="#f43f5e" text-anchor="start" font-family="monospace">60 m/s</text>
    <line x1="80" y1="360.0" x2="800" y2="360.0" stroke="#1e293b" stroke-dasharray="3,3" stroke-width="1"/>
    <text x="70" y="364.0" font-size="11" fill="#38bdf8" text-anchor="end" font-family="monospace">0 m</text>
    <text x="810" y="364.0" font-size="11" fill="#f43f5e" text-anchor="start" font-family="monospace">0 m/s</text>
    <line x1="80.0" y1="50" x2="80.0" y2="360" stroke="#1e293b" stroke-dasharray="3,3" stroke-width="1"/>
    <text x="80.0" y="380" font-size="11" fill="#94a3b8" text-anchor="middle" font-family="monospace">T+0s</text>
    <line x1="200.0" y1="50" x2="200.0" y2="360" stroke="#1e293b" stroke-dasharray="3,3" stroke-width="1"/>
    <text x="200.0" y="380" font-size="11" fill="#94a3b8" text-anchor="middle" font-family="monospace">T+54s</text>
    <line x1="320.0" y1="50" x2="320.0" y2="360" stroke="#1e293b" stroke-dasharray="3,3" stroke-width="1"/>
    <text x="320.0" y="380" font-size="11" fill="#94a3b8" text-anchor="middle" font-family="monospace">T+107s</text>
    <line x1="440.0" y1="50" x2="440.0" y2="360" stroke="#1e293b" stroke-dasharray="3,3" stroke-width="1"/>
    <text x="440.0" y="380" font-size="11" fill="#94a3b8" text-anchor="middle" font-family="monospace">T+161s</text>
    <line x1="560.0" y1="50" x2="560.0" y2="360" stroke="#1e293b" stroke-dasharray="3,3" stroke-width="1"/>
    <text x="560.0" y="380" font-size="11" fill="#94a3b8" text-anchor="middle" font-family="monospace">T+214s</text>
    <line x1="680.0" y1="50" x2="680.0" y2="360" stroke="#1e293b" stroke-dasharray="3,3" stroke-width="1"/>
    <text x="680.0" y="380" font-size="11" fill="#94a3b8" text-anchor="middle" font-family="monospace">T+268s</text>
    <line x1="800.0" y1="50" x2="800.0" y2="360" stroke="#1e293b" stroke-dasharray="3,3" stroke-width="1"/>
    <text x="800.0" y="380" font-size="11" fill="#94a3b8" text-anchor="middle" font-family="monospace">T+321s</text>
  
  <!-- Axes Frame -->
  <line x1="80" y1="50" x2="80" y2="360" stroke="#475569" stroke-width="1.5"/>
  <line x1="800" y1="50" x2="800" y2="360" stroke="#475569" stroke-width="1.5"/>
  <line x1="80" y1="360" x2="800" y2="360" stroke="#475569" stroke-width="1.5"/>

  <!-- Telemetry Curves -->
  <polyline fill="none" stroke="#f43f5e" stroke-width="2" stroke-linecap="round" points="80.0,360.0 81.1,360.0 82.2,360.0 83.4,360.0 84.5,360.0 85.6,360.0 86.7,360.0 87.8,360.0 89.0,360.0 90.1,360.0 91.2,360.0 92.3,360.0 93.4,360.0 94.6,360.0 95.7,360.0 96.8,360.0 97.9,360.0 99.1,360.0 100.2,360.0 101.3,360.0 102.4,360.0 103.5,360.0 104.7,360.0 105.8,360.0 106.9,360.0 108.0,360.0 109.1,360.0 110.3,360.0 111.4,360.0 112.5,360.0 113.6,360.0 114.7,360.0 115.9,360.0 117.2,360.0 118.3,360.0 119.5,360.0 120.6,360.0 121.7,360.0 122.8,360.0 123.9,360.0 125.1,360.0 126.2,360.0 127.3,360.0 128.4,360.0 129.5,360.0 130.7,360.0 131.8,360.0 132.9,360.0 134.0,360.0 135.1,360.0 136.3,360.0 137.4,360.0 138.5,360.0 139.6,360.0 140.7,360.0 141.9,360.0 143.0,360.0 144.1,360.0 145.2,360.0 146.4,360.0 147.5,360.0 148.6,360.0 149.7,360.0 150.8,360.0 152.0,360.0 153.1,360.0 154.2,360.0 155.3,360.0 156.4,360.0 157.6,360.0 158.7,360.0 159.8,360.0 160.9,360.0 162.0,360.0 163.2,360.0 164.3,360.0 165.4,360.0 166.5,360.0 167.6,360.0 168.8,360.0 169.9,360.0 171.0,360.0 172.1,360.0 173.3,360.0 174.4,360.0 175.5,360.0 176.6,360.0 177.7,360.0 178.9,360.0 180.0,360.0 181.1,360.0 182.2,360.0 183.3,360.0 184.7,360.0 185.8,360.0 186.9,360.0 188.0,360.0 189.2,360.0 190.3,360.0 191.4,360.0 192.5,360.0 193.6,360.0 194.8,360.0 195.9,360.0 197.0,360.0 198.1,360.0 199.3,360.0 200.4,360.0 201.5,360.0 202.6,360.0 203.7,360.0 204.9,360.0 206.0,360.0 207.1,360.0 208.2,360.0 209.3,360.0 210.5,360.0 211.6,360.0 212.7,360.0 213.8,360.0 214.9,360.0 216.1,360.0 217.2,360.0 218.3,360.0 219.4,360.0 220.5,360.0 221.7,360.0 222.8,360.0 223.9,360.0 225.0,360.0 226.2,360.0 227.3,360.0 228.4,360.0 229.5,360.0 230.6,360.0 231.8,360.0 232.9,360.0 234.0,360.0 235.1,360.0 236.2,360.0 237.4,360.0 238.5,360.0 239.6,360.0 240.7,360.0 241.8,360.0 243.0,360.0 244.1,360.0 245.2,360.0 246.3,360.0 247.4,360.0 248.6,360.0 249.7,360.0 250.8,360.0 251.9,360.0 253.1,360.0 254.2,360.0 255.3,360.0 256.4,360.0 257.5,360.0 258.7,360.0 259.8,360.0 260.9,360.0 262.0,360.0 263.1,360.0 264.3,360.0 265.4,360.0 266.7,360.0 267.8,360.0 269.0,360.0 270.1,360.0 271.2,360.0 272.3,360.0 273.4,360.0 274.6,360.0 275.7,360.0 276.8,360.0 277.9,360.0 279.1,360.0 280.2,360.0 281.3,360.0 282.4,360.0 283.5,360.0 284.7,360.0 285.8,360.0 286.9,360.0 288.0,360.0 289.1,360.0 290.3,360.0 291.4,360.0 292.5,360.0 293.6,360.0 294.7,360.0 295.9,360.0 297.0,360.0 298.1,360.0 299.2,360.0 300.3,360.0 301.5,360.0 302.6,360.0 303.7,360.0 304.8,360.0 306.0,360.0 307.1,360.0 308.2,360.0 309.3,360.0 310.4,360.0 311.6,360.0 312.7,360.0 313.8,360.0 314.9,360.0 316.0,360.0 317.2,360.0 318.3,360.0 319.4,360.0 320.5,360.0 321.6,360.0 322.8,360.0 323.9,360.0 325.0,360.0 326.1,360.0 327.2,360.0 328.4,360.0 329.5,360.0 330.6,360.0 331.7,360.0 332.9,360.0 334.0,360.0 335.1,360.0 336.2,360.0 337.3,360.0 338.5,360.0 339.6,360.0 340.7,360.0 341.8,360.0 342.9,360.0 344.1,360.0 345.2,360.0 346.3,360.0 347.6,360.0 348.8,360.0 349.9,359.5 351.0,357.3 352.1,351.7 353.3,345.0 354.4,338.4 355.5,331.6 356.6,325.0 357.7,318.0 358.9,311.1 360.0,304.1 361.1,297.2 362.2,290.2 363.3,283.7 364.5,276.6 365.6,269.9 366.7,263.3 367.8,256.7 368.9,250.2 370.1,243.9 371.2,237.6 372.3,231.3 373.4,225.2 374.5,219.2 375.7,213.3 376.8,207.1 377.9,201.3 379.0,195.8 380.1,189.9 381.3,184.6 382.4,178.9 383.5,173.7 384.6,168.3 385.8,162.8 386.9,157.8 388.0,152.5 389.1,147.4 390.2,142.4 391.4,137.5 392.5,132.7 393.6,127.9 394.7,123.2 395.8,118.5 397.0,113.9 398.1,109.3 399.2,104.9 400.3,100.4 401.4,96.1 402.6,95.2 403.7,90.6 404.8,86.5 405.9,82.1 407.0,78.2 408.2,75.7 409.3,71.8 410.4,67.9 411.5,67.9 412.7,79.3 413.8,92.0 414.9,103.8 416.0,114.8 417.1,125.7 418.3,135.9 419.4,145.9 420.5,155.5 421.6,164.7 422.7,173.5 423.9,182.3 425.2,190.0 426.3,197.8 427.4,205.3 428.6,212.5 429.7,219.8 430.8,226.5 431.9,232.8 433.1,239.2 434.2,245.4 435.3,251.4 436.4,257.4 437.5,262.9 438.7,268.6 439.8,274.0 440.9,279.4 442.0,284.8 443.1,290.1 444.3,295.2 445.4,300.2 446.5,304.7 447.6,309.5 448.7,314.0 449.9,318.4 451.0,322.5 452.1,326.4 453.2,329.9 454.3,332.9 455.5,335.3 456.6,337.0 457.7,341.1 458.8,346.5 460.0,348.2 461.1,348.1 462.2,347.4 463.3,347.0 464.4,346.8 465.6,346.6 466.7,346.9 467.8,347.5 468.9,348.0 470.0,347.8 471.2,347.4 472.3,347.2 473.4,347.0 474.5,346.9 475.9,346.8 477.0,347.0 478.1,347.4 479.2,347.2 480.3,347.4 481.5,347.1 482.6,346.6 483.7,346.5 484.8,346.5 486.0,346.9 487.1,347.2 488.2,346.8 489.3,347.1 490.4,347.2 491.6,346.9 492.7,346.2 493.8,345.7 494.9,345.7 496.0,346.7 497.2,347.3 498.3,346.4 499.4,346.7 500.5,347.0 501.6,346.8 502.8,346.4 503.9,345.7 505.0,346.5 506.1,347.2 507.2,347.2 508.4,347.2 509.5,347.3 510.6,346.9 511.7,346.3 512.9,345.8 514.0,346.4 515.1,347.0 516.2,347.4 517.3,347.3 518.5,347.4 519.6,346.7 520.7,346.3 521.8,346.3 522.9,346.7 524.1,347.1 525.2,347.6 526.3,347.5 527.6,347.3 528.8,346.6 529.9,346.6 531.0,346.8 532.1,347.3 533.3,347.7 534.6,348.0 536.2,347.7 537.5,347.3 539.3,347.2 541.1,347.2 543.3,347.2 545.1,347.2 546.9,347.2 548.9,347.2 550.7,347.1 553.2,347.1 555.7,347.1 558.1,347.1 559.9,347.1 562.4,347.1 565.8,347.1 568.7,347.1 570.9,347.1 572.7,347.1 574.9,347.1 577.2,347.1 578.8,347.1 581.0,347.1 583.9,347.1 586.4,347.1 590.2,347.1 593.5,347.1 596.7,347.1 599.2,347.1 600.7,347.1 602.5,347.1 604.5,347.0 606.1,347.0 608.1,347.0 611.0,347.0 613.9,347.0 616.9,347.0 618.9,347.0 623.4,347.0 628.5,347.0 631.9,347.0 635.7,347.0 637.9,347.0 640.6,347.0 642.9,347.0 645.1,347.0 647.1,347.0 649.4,347.0 651.4,347.0 653.4,347.0 655.6,346.9 657.4,346.9 660.6,346.9 663.0,346.9 665.1,346.9 667.7,346.9 670.0,346.9 672.2,346.9 674.9,346.9 677.6,346.9 679.9,346.9 681.9,346.9 684.1,346.9 686.8,346.9 689.5,346.9 692.6,346.9 695.8,346.9 698.7,346.9 701.4,346.8 706.3,346.8 709.9,346.8 713.5,346.8 717.3,346.8 722.4,346.8 728.5,346.8 733.6,346.8 737.7,346.8 740.8,346.8 746.0,346.8 750.0,346.8 753.4,346.8 757.2,346.8 761.2,346.8 767.5,346.8 777.1,346.8 787.0,346.8 793.9,346.8 800.0,346.8"/>
  <polyline fill="none" stroke="#38bdf8" stroke-width="2.5" stroke-linecap="round" points="80.0,356.7 81.1,356.7 82.2,356.7 83.4,356.7 84.5,356.7 85.6,356.7 86.7,356.7 87.8,356.7 89.0,356.7 90.1,356.7 91.2,356.7 92.3,356.7 93.4,356.7 94.6,356.7 95.7,356.7 96.8,356.7 97.9,356.7 99.1,356.7 100.2,356.7 101.3,356.7 102.4,356.7 103.5,356.7 104.7,356.7 105.8,356.7 106.9,356.7 108.0,356.7 109.1,356.7 110.3,356.7 111.4,356.7 112.5,356.7 113.6,356.7 114.7,356.7 115.9,356.7 117.2,356.7 118.3,356.7 119.5,356.7 120.6,356.7 121.7,356.7 122.8,356.7 123.9,356.7 125.1,356.7 126.2,356.7 127.3,356.7 128.4,356.7 129.5,356.7 130.7,356.7 131.8,356.7 132.9,356.7 134.0,356.7 135.1,356.7 136.3,356.7 137.4,356.7 138.5,356.7 139.6,356.7 140.7,356.7 141.9,356.7 143.0,356.7 144.1,356.7 145.2,356.7 146.4,356.7 147.5,356.7 148.6,356.7 149.7,356.7 150.8,356.7 152.0,356.7 153.1,356.7 154.2,356.7 155.3,356.7 156.4,356.7 157.6,356.7 158.7,356.7 159.8,356.7 160.9,356.7 162.0,356.7 163.2,356.7 164.3,356.7 165.4,356.7 166.5,356.7 167.6,356.7 168.8,356.7 169.9,356.7 171.0,356.7 172.1,356.7 173.3,356.7 174.4,356.7 175.5,356.7 176.6,356.7 177.7,356.7 178.9,356.7 180.0,356.7 181.1,356.7 182.2,356.7 183.3,356.7 184.7,356.7 185.8,356.7 186.9,356.7 188.0,356.7 189.2,356.7 190.3,356.7 191.4,356.7 192.5,356.7 193.6,356.7 194.8,356.7 195.9,356.7 197.0,356.7 198.1,356.7 199.3,356.7 200.4,356.7 201.5,356.7 202.6,356.7 203.7,356.7 204.9,356.7 206.0,356.7 207.1,356.7 208.2,356.7 209.3,356.7 210.5,356.7 211.6,356.7 212.7,356.7 213.8,356.7 214.9,356.7 216.1,356.7 217.2,356.7 218.3,356.7 219.4,356.7 220.5,356.7 221.7,356.7 222.8,356.7 223.9,356.7 225.0,356.7 226.2,356.7 227.3,356.7 228.4,356.7 229.5,356.7 230.6,356.7 231.8,356.7 232.9,356.7 234.0,356.7 235.1,356.7 236.2,356.7 237.4,356.7 238.5,356.7 239.6,356.7 240.7,356.7 241.8,356.7 243.0,356.7 244.1,356.7 245.2,356.7 246.3,356.7 247.4,356.7 248.6,356.7 249.7,356.7 250.8,356.7 251.9,356.7 253.1,356.7 254.2,356.7 255.3,356.7 256.4,356.7 257.5,356.7 258.7,356.7 259.8,356.7 260.9,356.7 262.0,356.7 263.1,356.7 264.3,356.7 265.4,356.7 266.7,356.7 267.8,356.7 269.0,356.7 270.1,356.7 271.2,356.7 272.3,356.7 273.4,356.7 274.6,356.7 275.7,356.7 276.8,356.7 277.9,356.7 279.1,356.7 280.2,356.7 281.3,356.7 282.4,356.7 283.5,356.7 284.7,356.7 285.8,356.7 286.9,356.7 288.0,356.7 289.1,356.7 290.3,356.7 291.4,356.7 292.5,356.7 293.6,356.7 294.7,356.7 295.9,356.7 297.0,356.7 298.1,356.7 299.2,356.7 300.3,356.7 301.5,356.7 302.6,356.7 303.7,356.7 304.8,356.7 306.0,356.7 307.1,356.7 308.2,356.7 309.3,356.7 310.4,356.7 311.6,356.7 312.7,356.7 313.8,356.7 314.9,356.7 316.0,356.7 317.2,356.7 318.3,356.7 319.4,356.7 320.5,356.7 321.6,356.7 322.8,356.7 323.9,356.7 325.0,356.7 326.1,356.7 327.2,356.7 328.4,356.7 329.5,356.7 330.6,356.7 331.7,356.7 332.9,356.7 334.0,356.7 335.1,356.7 336.2,356.7 337.3,356.7 338.5,356.7 339.6,356.7 340.7,356.7 341.8,356.7 342.9,356.7 344.1,356.7 345.2,356.7 346.3,356.7 347.6,356.7 348.8,356.7 349.9,356.7 351.0,356.7 352.1,356.6 353.3,356.3 354.4,355.9 355.5,355.4 356.6,354.7 357.7,353.9 358.9,352.9 360.0,351.8 361.1,350.5 362.2,349.1 363.3,347.6 364.5,345.8 365.6,344.0 366.7,342.0 367.8,339.8 368.9,337.5 370.1,335.1 371.2,332.6 372.3,329.9 373.4,327.0 374.5,324.1 375.7,321.0 376.8,317.7 377.9,314.3 379.0,311.0 380.1,307.3 381.3,303.8 382.4,299.8 383.5,296.0 384.6,292.0 385.8,287.7 386.9,283.6 388.0,279.0 389.1,274.5 390.2,269.9 391.4,265.2 392.5,260.4 393.6,255.5 394.7,250.5 395.8,245.4 397.0,240.2 398.1,234.9 399.2,229.5 400.3,224.0 401.4,218.5 402.6,217.3 403.7,211.4 404.8,205.9 405.9,200.0 407.0,194.5 408.2,190.9 409.3,185.3 410.4,179.6 411.5,179.6 412.7,174.3 413.8,168.5 414.9,162.9 416.0,157.8 417.1,152.7 418.3,148.1 419.4,143.4 420.5,139.0 421.6,134.8 422.7,130.7 423.9,126.7 425.2,123.2 426.3,119.7 427.4,116.4 428.6,113.2 429.7,110.0 430.8,107.2 431.9,104.6 433.1,102.0 434.2,99.5 435.3,97.2 436.4,95.0 437.5,93.0 438.7,91.1 439.8,89.2 440.9,87.5 442.0,85.9 443.1,84.4 444.3,83.1 445.4,81.9 446.5,80.8 447.6,79.8 448.7,78.9 449.9,78.1 451.0,77.4 452.1,76.8 453.2,76.3 454.3,76.0 455.5,75.7 456.6,75.6 457.7,75.5 458.8,75.6 460.0,75.7 461.1,75.9 462.2,76.1 463.3,76.4 464.4,76.6 465.6,76.9 466.7,77.2 467.8,77.5 468.9,77.7 470.0,78.0 471.2,78.3 472.3,78.5 473.4,78.8 474.5,79.1 475.9,79.3 477.0,79.6 478.1,79.9 479.2,80.1 480.3,80.4 481.5,80.7 482.6,81.0 483.7,81.3 484.8,81.6 486.0,81.8 487.1,82.1 488.2,82.4 489.3,82.7 490.4,83.0 491.6,83.2 492.7,83.4 493.8,83.7 494.9,84.1 496.0,84.3 497.2,84.6 498.3,84.9 499.4,85.2 500.5,85.5 501.6,85.7 502.8,86.0 503.9,86.3 505.0,86.7 506.1,86.9 507.2,87.2 508.4,87.5 509.5,87.7 510.6,88.0 511.7,88.3 512.9,88.6 514.0,88.9 515.1,89.2 516.2,89.4 517.3,89.7 518.5,90.0 519.6,90.2 520.7,90.5 521.8,90.8 522.9,91.1 524.1,91.4 525.2,91.6 526.3,91.9 527.6,92.2 528.8,92.4 529.9,92.7 531.0,93.0 532.1,93.3 533.3,93.6 534.6,93.8 536.2,94.0 537.5,94.2 539.3,94.3 541.1,94.3 543.3,94.3 545.1,94.3 546.9,94.3 548.9,94.3 550.7,94.3 553.2,94.3 555.7,94.3 558.1,94.3 559.9,94.3 562.4,94.3 565.8,94.3 568.7,94.3 570.9,94.3 572.7,94.3 574.9,94.3 577.2,94.3 578.8,94.3 581.0,94.3 583.9,94.3 586.4,94.3 590.2,94.3 593.5,94.3 596.7,94.3 599.2,94.3 600.7,94.3 602.5,94.3 604.5,94.3 606.1,94.3 608.1,94.3 611.0,94.3 613.9,94.3 616.9,94.3 618.9,94.3 623.4,94.3 628.5,94.3 631.9,94.3 635.7,94.3 637.9,94.3 640.6,94.3 642.9,94.3 645.1,94.3 647.1,94.3 649.4,94.3 651.4,94.3 653.4,94.4 655.6,94.4 657.4,94.4 660.6,94.4 663.0,94.4 665.1,94.4 667.7,94.4 670.0,94.4 672.2,94.4 674.9,94.4 677.6,94.4 679.9,94.4 681.9,94.4 684.1,94.4 686.8,94.4 689.5,94.4 692.6,94.4 695.8,94.4 698.7,94.4 701.4,94.4 706.3,94.4 709.9,94.4 713.5,94.4 717.3,94.4 722.4,94.4 728.5,94.4 733.6,94.4 737.7,94.4 740.8,94.4 746.0,94.4 750.0,94.4 753.4,94.4 757.2,94.4 761.2,94.4 767.5,94.4 777.1,94.4 787.0,94.4 793.9,94.4 800.0,94.4"/>

  <!-- Annotated Event Markers -->
  <circle cx="457.7" cy="75.5" r="4.5" fill="#38bdf8" stroke="#ffffff" stroke-width="1.5"/>
  <text x="457.7" y="63.5" font-size="11" font-weight="bold" fill="#38bdf8" text-anchor="middle">Apogee: 6,423 m (T+168s)</text>
  <text x="692.0" y="205.8" font-size="11" font-weight="bold" fill="#94a3b8" text-anchor="end">Parachute Phase: -12.8 m/s</text>

  <!-- Axis Titles & Legends -->
  <text x="440.0" y="405" font-size="12" fill="#94a3b8" text-anchor="middle">Mission Elapsed Time (MET) in seconds</text>
  <text transform="rotate(-90)" x="-205.0" y="24" font-size="11" fill="#38bdf8" text-anchor="middle">Altitude</text>
  <text transform="rotate(90)" x="205.0" y="-856" font-size="11" fill="#f43f5e" text-anchor="middle">Velocity (m/s)</text>

  <!-- Legend Box -->
  <g transform="translate(80, 400)">
    <line x1="0" y1="0" x2="20" y2="0" stroke="#38bdf8" stroke-width="2.5"/>
    <text x="25" y="4" font-size="11" fill="#94a3b8">Altitude</text>

    <line x1="100" y1="0" x2="120" y2="0" stroke="#f43f5e" stroke-width="2"/>
    <text x="125" y="4" font-size="11" fill="#94a3b8">Surface Velocity (m/s)</text>
  </g>
</svg>